<?xml version="1.0" encoding="UTF-8"?>
<!DOCTYPE svg PUBLIC "-//W3C//DTD SVG 1.1//EN" "http://www.w3.org/Graphics/SVG/1.1/DTD/svg11.dtd">
<!-- Creator: CorelDRAW X7 -->
<svg xmlns="http://www.w3.org/2000/svg" xml:space="preserve" width="140mm" height="140mm" version="1.1" style="shape-rendering:geometricPrecision; text-rendering:geometricPrecision; image-rendering:optimizeQuality; fill-rule:evenodd; clip-rule:evenodd"
viewBox="0 0 14000 14000"
 xmlns:xlink="http://www.w3.org/1999/xlink">
 <defs>
  <style type="text/css">
   <![CDATA[
    .fil0 {fill:white}
   ]]>
  </style>
 </defs>
 <g id="Слой_x0020_1">
  <metadata id="CorelCorpID_0Corel-Layer"/>
  <g id="_983966608">
   <g>
    <g>
     <path class="fil0" d="M4513 8320c176,-89 387,-23 481,151l666 1232c51,95 160,143 265,116 104,-26 178,-120 178,-228l0 -1799c-1,-130 -106,-236 -236,-236 -130,0 -236,106 -236,236l0 867 -222 -412c-216,-400 -703,-553 -1109,-348 -347,175 -525,561 -434,939l431 1788c101,418 281,806 534,1153l846 1157c46,63 117,97 190,97 48,0 97,-15 139,-46 105,-77 128,-224 51,-329l-845 -1157c-217,-296 -370,-628 -457,-985l-431 -1788c-40,-165 38,-332 189,-408z"/>
    </g>
   </g>
   <g>
    <g>
     <path class="fil0" d="M9833 7315c-139,0 -270,36 -384,98 -116,-301 -408,-515 -749,-515 -147,0 -285,40 -404,109 -127,-276 -406,-468 -729,-468 -118,0 -230,26 -331,72l0 -1127c0,-442 -360,-802 -803,-802 -442,0 -802,360 -802,802l0 408c0,131 106,236 236,236 130,0 235,-105 235,-236l0 -408c0,-182 149,-331 331,-331 183,0 331,149 331,331l0 3325c0,130 106,236 236,236 130,0 236,-106 236,-236l0 -1468c0,-182 148,-331 331,-331 182,0 331,149 331,331l0 1468c0,130 105,236 235,236 130,0 236,-106 236,-236l0 -1109c0,-182 148,-331 331,-331 182,0 331,149 331,331l0 1109c0,130 105,236 235,236 131,0 236,-106 236,-236l0 -691c0,-183 149,-331 331,-331 182,0 331,148 331,331l0 1988c0,530 -80,1055 -239,1560l-332 1060c-39,124 30,257 154,296 23,7 47,10 71,10 100,0 193,-64 224,-165l333 -1060c173,-551 260,-1123 260,-1701l0 -1988c0,-443 -360,-803 -802,-803z"/>
    </g>
   </g>
   <g>
    <g>
     <path class="fil0" d="M13013 2217c-47,-145 -170,-248 -321,-270l-721 -104 -323 -654c-68,-137 -204,-221 -356,-221 0,0 0,0 0,0 -152,0 -288,84 -356,221l-322 654 -722 105c-151,22 -273,125 -320,270 -47,145 -9,301 100,407l523 509 -123 718c-26,150 34,299 157,388 70,51 151,77 233,77 63,0 127,-16 185,-46l646 -340 645 339c135,71 295,59 418,-30 123,-90 184,-238 158,-388l-124 -719 522 -509c109,-106 148,-262 101,-407zm-980 606c-93,91 -136,222 -114,351l105 609 -547 -287c-115,-61 -253,-61 -369,0l-546 287 104 -609c22,-128 -21,-259 -114,-351l-443 -430 611 -89c130,-19 241,-100 299,-218l273 -553 273 553c58,117 170,198 299,217l611 89 -442 431z"/>
    </g>
   </g>
   <g>
    <g>
     <path class="fil0" d="M8720 2217c-47,-145 -169,-248 -320,-270l-722 -104 -323 -654c-67,-137 -203,-221 -355,-221 0,0 0,0 0,0 -152,0 -289,84 -356,221l-323 654 -721 105c-151,22 -274,125 -321,270 -46,145 -8,301 101,407l522 509 -123 718c-25,150 35,299 158,388 70,51 151,77 233,77 63,0 126,-16 185,-46l645 -340 646 339c135,71 295,59 418,-30 123,-90 183,-238 158,-388l-124 -719 522 -509c109,-106 147,-262 100,-407zm-979 606c-94,91 -136,222 -114,351l105 609 -547 -287c-116,-61 -254,-61 -369,0l-547 287 104 -609c22,-128 -20,-260 -114,-351l-442 -430 611 -89c129,-19 241,-100 299,-218l273 -553 273 553c58,117 170,198 299,217l611 89 -442 431z"/>
    </g>
   </g>
   <g>
    <g>
     <path class="fil0" d="M4428 2217c-47,-145 -170,-248 -320,-270l-722 -104 -323 -654c-67,-137 -203,-221 -356,-221 0,0 0,0 0,0 -152,0 -288,84 -355,221l-323 654 -722 105c-150,22 -273,125 -320,270 -47,145 -8,301 101,407l522 509 -123 718c-26,150 35,299 158,388 69,51 151,77 233,77 63,0 126,-16 185,-46l645 -340 646 339c134,71 295,59 418,-30 123,-90 183,-238 157,-388l-123 -719 522 -509c109,-106 147,-262 100,-407zm-979 606c-94,91 -136,222 -114,351l104 609 -546 -287c-116,-61 -254,-61 -370,0l-546 287 104 -608c22,-129 -20,-260 -114,-352l-442 -430 611 -89c129,-19 241,-100 298,-218l273 -553 274 553c58,117 169,198 299,217l611 89 -442 431z"/>
    </g>
   </g>
   <g>
    <g>
     <path class="fil0" d="M6033 6697c-43,-44 -104,-69 -166,-69 -62,0 -123,25 -167,69 -44,44 -69,104 -69,166 0,62 25,123 69,167 44,44 105,69 167,69 62,0 123,-25 166,-69 44,-44 69,-105 69,-167 0,-62 -25,-122 -69,-166z"/>
    </g>
   </g>
   <g>
   </g>
   <g>
   </g>
   <g>
   </g>
   <g>
   </g>
   <g>
   </g>
   <g>
   </g>
   <g>
   </g>
   <g>
   </g>
   <g>
   </g>
   <g>
   </g>
   <g>
   </g>
   <g>
   </g>
   <g>
   </g>
   <g>
   </g>
   <g>
   </g>
  </g>
 </g>
</svg>
