<?xml version="1.0" encoding="UTF-8"?>
<!DOCTYPE svg PUBLIC "-//W3C//DTD SVG 1.1//EN" "http://www.w3.org/Graphics/SVG/1.1/DTD/svg11.dtd">
<!-- Creator: CorelDRAW X7 -->
<svg xmlns="http://www.w3.org/2000/svg" xml:space="preserve" width="140mm" height="140mm" version="1.1" style="shape-rendering:geometricPrecision; text-rendering:geometricPrecision; image-rendering:optimizeQuality; fill-rule:evenodd; clip-rule:evenodd"
viewBox="0 0 14000 14000"
 xmlns:xlink="http://www.w3.org/1999/xlink">
 <defs>
  <style type="text/css">
   <![CDATA[
    .fil0 {fill:white}
   ]]>
  </style>
 </defs>
 <g id="Слой_x0020_1">
  <metadata id="CorelCorpID_0Corel-Layer"/>
  <g id="_983955088">
   <path class="fil0" d="M13100 5888c0,-1561 -1219,-2840 -2755,-2942l0 -1584 -9445 0 0 10626 8265 0 0 590c0,543 441,984 983,984 543,0 984,-441 984,-984l0 -2951 -393 0 0 -847c1345,-274 2361,-1466 2361,-2892l0 0zm-393 0c0,1411 -1148,2558 -2559,2558 -1410,0 -2558,-1147 -2558,-2558 0,-1410 1148,-2558 2558,-2558 1411,0 2559,1148 2559,2558zm-3542 3739l0 1968 -7872 0 0 -9839 8659 0 0 1190c-1536,102 -2755,1381 -2755,2942 0,1426 1016,2618 2361,2892l0 847 -393 0zm1574 2951c0,326 -265,591 -591,591 -325,0 -590,-265 -590,-591l0 -2558 1181 0 0 2558zm-394 -2951l-393 0 0 -797c65,4 130,10 196,10 67,0 132,-6 197,-10l0 797zm0 0z"/>
   <path class="fil0" d="M7984 5888c0,1193 971,2165 2164,2165 1194,0 2165,-972 2165,-2165 0,-1193 -971,-2165 -2165,-2165 -1193,0 -2164,972 -2164,2165zm3935 0c0,977 -794,1771 -1771,1771 -976,0 -1771,-794 -1771,-1771 0,-977 795,-1771 1771,-1771 977,0 1771,794 1771,1771zm0 0z"/>
   <path class="fil0" d="M10345 12578c0,109 -88,197 -197,197 -108,0 -196,-88 -196,-197 0,-108 88,-196 196,-196 109,0 197,88 197,196zm0 0z"/>
   <path class="fil0" d="M9471 6315l-219 327 776 517 1084 -2167 -353 -176 -884 1769 -404 -270zm0 0z"/>
   <path class="fil0" d="M4427 7932l-363 -152 -278 666 -2099 0 0 2755 3148 0 0 -2755 -623 0 215 -514zm15 908l0 1967 -2361 0 0 -1967 1541 0 -429 1030 -383 -382 -278 278 798 798 718 -1724 394 0zm0 0z"/>
   <path class="fil0" d="M4427 4193l-363 -152 -278 666 -2099 0 0 2755 3148 0 0 -2755 -623 0 215 -514zm15 908l0 1968 -2361 0 0 -1968 1541 0 -429 1030 -383 -382 -278 278 798 798 718 -1724 394 0zm0 0z"/>
   <path class="fil0" d="M6410 2936l393 0 0 394 -393 0 0 -394zm0 0z"/>
   <path class="fil0" d="M1687 2936l4329 0 0 394 -4329 0 0 -394zm0 0z"/>
   <path class="fil0" d="M5229 8446l2361 0 0 394 -2361 0 0 -394zm0 0z"/>
   <path class="fil0" d="M5229 9233l2361 0 0 394 -2361 0 0 -394zm0 0z"/>
   <path class="fil0" d="M5229 10020l2361 0 0 394 -2361 0 0 -394zm0 0z"/>
   <path class="fil0" d="M5229 10807l2361 0 0 394 -2361 0 0 -394zm0 0z"/>
   <path class="fil0" d="M5229 4707l1574 0 0 394 -1574 0 0 -394zm0 0z"/>
   <path class="fil0" d="M5229 5494l1574 0 0 394 -1574 0 0 -394zm0 0z"/>
   <path class="fil0" d="M5229 6282l1574 0 0 393 -1574 0 0 -393zm0 0z"/>
   <path class="fil0" d="M5229 7069l1574 0 0 393 -1574 0 0 -393zm0 0z"/>
   <path class="fil0" d="M1687 2149l5116 0 0 394 -5116 0 0 -394zm0 0z"/>
  </g>
 </g>
</svg>
