<svg xmlns="http://www.w3.org/2000/svg" width="69" height="68" viewBox="0 0 69 68">
  <defs>
    <style>
      .cls-1 {
        fill: #fff;
        fill-rule: evenodd;
      }
    </style>
  </defs>
  <path class="cls-1" d="M997,1528.98a16.552,16.552,0,0,0-15.4-16.5V1504H928v59.18h47v3.3a5.5,5.5,0,1,0,11,0v-16.54h-2.2v-4.75a16.557,16.557,0,0,0,13.2-16.21h0Zm-2.2,0a14.305,14.305,0,1,1-14.308-14.34A14.339,14.339,0,0,1,994.8,1528.98ZM975,1549.94v11.03H930.2v-54.76h49.2v6.27a16.546,16.546,0,0,0-2.2,32.71v4.75H975Zm8.8,16.54a3.3,3.3,0,1,1-6.6,0v-14.34h6.6v14.34Zm-2.2-16.54h-2.2v-4.47c0.364,0.02.727,0.06,1.1,0.06s0.738-.04,1.1-0.06v4.47Zm-13.2-20.96a12.1,12.1,0,1,0,12.1-12.14A12.137,12.137,0,0,0,968.4,1528.98Zm22,0a9.9,9.9,0,1,1-9.9-9.93A9.929,9.929,0,0,1,990.4,1528.98Zm-8.8,37.5a1.1,1.1,0,1,1-1.1-1.1A1.107,1.107,0,0,1,981.6,1566.48Zm-4.887-35.11-1.224,1.84,4.338,2.89,6.061-12.15-1.974-.98-4.942,9.92Zm-27.3,7.48-2.03-.85-1.554,3.73H934.093v15.84h17.6v-15.84h-3.483Zm0.084,5.09v11.43H936.3v-11.43h8.616l-2.4,5.78-2.142-2.14-1.554,1.55,4.461,4.48,4.015-9.67h2.2Zm-0.084-27.83-2.03-.85-1.554,3.73H934.093v15.84h17.6v-15.84h-3.483Zm0.084,5.09v11.43H936.3V1521.2h8.616l-2.4,5.78-2.142-2.15-1.554,1.56,4.461,4.48,4.015-9.67h2.2Zm11-11.18h2.2v2.21h-2.2v-2.21Zm-26.407,0h24.2v2.21h-24.2v-2.21Zm20.593,31.71h10.883v2.21H954.686v-2.21Zm0,5.01h10.883v2.21H954.686v-2.21Zm0,5h10.883v2.21H954.686v-2.21Zm0-32.75h6.6v2.21h-6.6v-2.21Zm0,5.01h6.6v2.21h-6.6V1524Zm0,5.01h6.6v2.2h-6.6v-2.2Z" transform="translate(-928 -1504)"/>
</svg>
