<?xml version="1.0" encoding="UTF-8"?>
<!DOCTYPE svg PUBLIC "-//W3C//DTD SVG 1.1//EN" "http://www.w3.org/Graphics/SVG/1.1/DTD/svg11.dtd">
<!-- Creator: CorelDRAW X7 -->
<svg xmlns="http://www.w3.org/2000/svg" xml:space="preserve" width="140mm" height="140mm" version="1.1" style="shape-rendering:geometricPrecision; text-rendering:geometricPrecision; image-rendering:optimizeQuality; fill-rule:evenodd; clip-rule:evenodd"
viewBox="0 0 14000 14000"
 xmlns:xlink="http://www.w3.org/1999/xlink">
 <defs>
  <style type="text/css">
   <![CDATA[
    .fil0 {fill:white}
   ]]>
  </style>
 </defs>
 <g id="Слой_x0020_1">
  <metadata id="CorelCorpID_0Corel-Layer"/>
  <g id="_812562992">
   <g>
    <g>
     <path class="fil0" d="M2563 7722c-114,0 -206,92 -206,206l0 826c0,114 92,206 206,206 114,0 207,-92 207,-206l0 -826c0,-114 -93,-206 -207,-206z"/>
    </g>
   </g>
   <g>
    <g>
     <path class="fil0" d="M3389 8135c-114,0 -207,92 -207,206l0 825c0,114 93,207 207,207 114,0 206,-93 206,-207l0 -825c0,-114 -92,-206 -206,-206z"/>
    </g>
   </g>
   <g>
    <g>
     <path class="fil0" d="M10915 9242c-96,-61 -224,-33 -285,64 -59,92 -35,214 54,278 567,382 717,1151 335,1718 -382,567 -1151,718 -1718,336 -567,-382 -717,-1152 -336,-1719 230,-341 615,-546 1027,-546 114,0 206,-93 206,-207 0,-114 -92,-206 -206,-206 -912,0 -1651,739 -1651,1651 0,912 740,1651 1651,1651 912,-1 1651,-740 1651,-1652 0,-548 -273,-1061 -728,-1368z"/>
    </g>
   </g>
   <g>
    <g>
     <path class="fil0" d="M12371 9925c-200,-692 -692,-1263 -1347,-1563l0 -4561c0,-73 -39,-140 -102,-177l-4539 -2683c-65,-38 -146,-38 -211,0l-4539 2683c-4,2 -8,6 -12,9 -4,3 -8,6 -12,9 -18,14 -33,31 -45,51 0,1 -3,2 -4,3l0 2c-11,21 -19,44 -23,67 0,6 -2,12 -3,18 0,7 -2,12 -2,18l0 5365c0,73 38,141 101,178l4539 2683c6,2 12,4 17,7 6,2 12,5 18,7 45,19 96,19 142,0 6,-2 11,-5 17,-7 5,-3 11,-4 17,-7l1232 -729c379,1314 1751,2071 3064,1692 1314,-379 2071,-1751 1692,-3065zm-6093 -8567l1073 634 -1591 941c-99,58 -131,184 -73,282 58,99 184,131 283,73l1786 -1055 1073 634 -4134 2442 -1073 -634 1729 -1021c98,-58 131,-185 73,-283 -58,-98 -185,-131 -283,-73l-1924 1137 -1073 -634 4134 -2443zm-1789 4309l0 1378 -1066 -630 0 -1378 1066 630zm3108 4306c-55,208 -82,422 -81,638 0,86 4,172 13,258l-1045 618 0 -670c0,-114 -93,-206 -206,-206 -114,0 -207,92 -207,206l0 670 -4127 -2438 0 -4886 1066 630 0 1739c0,73 39,141 102,178l1478 874c32,19 69,29 105,29 114,0 207,-93 207,-207l0 -1495 1169 691 0 3390c0,114 93,206 207,206 113,0 206,-92 206,-206l0 -3390 3740 -2210c98,-58 130,-185 72,-283 -58,-98 -184,-131 -282,-73l-3736 2208 -1177 -695 4134 -2443 1376 813 0 4298c-1317,-347 -2666,439 -3014,1756zm2395 2701c-1140,0 -2064,-924 -2064,-2063 0,-1140 924,-2064 2064,-2064 1139,0 2063,924 2063,2064 -1,1139 -924,2062 -2063,2063z"/>
    </g>
   </g>
   <g>
    <g>
     <path class="fil0" d="M10752 10052c-80,-77 -207,-77 -287,0l-783 783 -163 -164c-82,-79 -213,-77 -292,5 -77,80 -77,207 0,287l309 310c81,80 212,80 292,0l929 -929c79,-82 77,-213 -5,-292z"/>
    </g>
   </g>
   <g>
   </g>
   <g>
   </g>
   <g>
   </g>
   <g>
   </g>
   <g>
   </g>
   <g>
   </g>
   <g>
   </g>
   <g>
   </g>
   <g>
   </g>
   <g>
   </g>
   <g>
   </g>
   <g>
   </g>
   <g>
   </g>
   <g>
   </g>
   <g>
   </g>
  </g>
 </g>
</svg>
