<svg xmlns="http://www.w3.org/2000/svg" width="45.03" height="71" viewBox="0 0 45.03 71">
  <defs>
    <style>
      .cls-1 {
        fill: #fff;
        fill-rule: evenodd;
      }
    </style>
  </defs>
  <path class="cls-1" d="M1363.12,1189a1.066,1.066,0,0,1-.87-0.45l-4.97-6.87a19.037,19.037,0,0,1-3.08-6.74l-2.53-10.61a4.622,4.622,0,0,1,2.39-5.23,4.512,4.512,0,0,1,2.09-.51,4.582,4.582,0,0,1,4.03,2.45l1.3,2.44,0.55-.14v-5.14a1.1,1.1,0,0,1,1.09-1.11,1.118,1.118,0,0,1,1.1,1.11v10.67a1.1,1.1,0,0,1-.83,1.07,1.241,1.241,0,0,1-.27.03,1.079,1.079,0,0,1-.95-0.57l-3.91-7.32a2.4,2.4,0,0,0-3.21-1.02,2.46,2.46,0,0,0-1.27,2.76l2.53,10.61a16.9,16.9,0,0,0,2.73,5.95l4.96,6.87a1.1,1.1,0,0,1-.23,1.53A1.022,1.022,0,0,1,1363.12,1189Zm23.19-.01a1.194,1.194,0,0,1-.33-0.04,1.115,1.115,0,0,1-.71-1.39l1.95-6.29a31.336,31.336,0,0,0,1.42-9.34v-11.8a2.235,2.235,0,1,0-4.47,0v4.1a1.09,1.09,0,1,1-2.18,0v-6.58a2.235,2.235,0,1,0-4.47,0v6.58a1.09,1.09,0,1,1-2.18,0v-8.71a2.235,2.235,0,1,0-4.47,0v8.71a1.1,1.1,0,1,1-2.19,0V1144.5a2.235,2.235,0,1,0-4.47,0v2.42a1.09,1.09,0,1,1-2.18,0v-2.42a4.42,4.42,0,1,1,8.84,0v7.15l0.41-.19a4.269,4.269,0,0,1,1.82-.4,4.422,4.422,0,0,1,4.01,2.6l0.14,0.3,0.28-.17a4.4,4.4,0,0,1,6.34,2.26l0.13,0.32,0.29-.16a4.369,4.369,0,0,1,2.11-.55,4.451,4.451,0,0,1,4.42,4.47v11.8a33.494,33.494,0,0,1-1.52,10l-1.95,6.29A1.083,1.083,0,0,1,1386.31,1188.99Zm-6.1-51.71a2.005,2.005,0,0,1-1.19-.4,2.053,2.053,0,0,1-.81-2.01l0.75-4.42-3.18-3.13a2.074,2.074,0,0,1-.52-2.11,2.037,2.037,0,0,1,1.65-1.4l4.38-.64,1.97-4.02a2.019,2.019,0,0,1,3.64-.01l1.97,4.03,4.39,0.64a2.021,2.021,0,0,1,1.64,1.4,2.059,2.059,0,0,1-.51,2.11l-3.18,3.13,0.76,4.42a2.089,2.089,0,0,1-.81,2.01,2.024,2.024,0,0,1-1.2.39h0a2,2,0,0,1-.95-0.24l-3.93-2.08-3.92,2.09A2.06,2.06,0,0,1,1380.21,1137.28Zm4.88-4.55a1.962,1.962,0,0,1,.94.24l3.74,1.98-0.72-4.21a2.076,2.076,0,0,1,.59-1.82l3.02-2.97-4.18-.62a2.061,2.061,0,0,1-1.53-1.12l-1.87-3.82-1.86,3.82a2.048,2.048,0,0,1-1.54,1.13l-4.17.61,3.02,2.97a2.042,2.042,0,0,1,.58,1.82l-0.71,4.21,3.74-1.98A1.971,1.971,0,0,1,1385.09,1132.73Zm-30.07,4.55a1.983,1.983,0,0,1-1.19-.4,2.022,2.022,0,0,1-.81-2.01l0.74-4.42-3.17-3.13a2.064,2.064,0,0,1-.52-2.11,2.037,2.037,0,0,1,1.64-1.4l4.39-.64,1.97-4.02a2.019,2.019,0,0,1,3.64-.01l1.97,4.03,4.39,0.64a2.021,2.021,0,0,1,1.64,1.4,2.08,2.08,0,0,1-.51,2.11l-3.18,3.13,0.75,4.42a2.069,2.069,0,0,1-.81,2.01,1.973,1.973,0,0,1-1.19.39h0a1.971,1.971,0,0,1-.95-0.24l-3.93-2.08-3.92,2.09A2.06,2.06,0,0,1,1355.02,1137.28Zm3-13.07a2.015,2.015,0,0,1-1.53,1.13l-4.17.61,3.02,2.97a2.07,2.07,0,0,1,.58,1.83l-0.71,4.2,3.73-1.98a2,2,0,0,1,.95-0.24,1.971,1.971,0,0,1,.95.24l3.73,1.98-0.71-4.21a2.076,2.076,0,0,1,.59-1.82l3.02-2.97-4.18-.62a2.061,2.061,0,0,1-1.53-1.12l-1.87-3.82Zm5.1,29.58a1.084,1.084,0,0,1-.77-0.33,1.1,1.1,0,0,1-.32-0.78,1.116,1.116,0,0,1,.32-0.77,1.074,1.074,0,0,1,.77-0.32,1.057,1.057,0,0,1,.77.32,1.116,1.116,0,0,1,.32.77,1.1,1.1,0,0,1-.32.78A1.067,1.067,0,0,1,1363.12,1153.79Z" transform="translate(-1349.97 -1118)"/>
</svg>
