<svg xmlns="http://www.w3.org/2000/svg" width="185" height="54" viewBox="0 0 185 54">
  <metadata><?xpacket begin="﻿" id="W5M0MpCehiHzreSzNTczkc9d"?>
<x:xmpmeta xmlns:x="adobe:ns:meta/" x:xmptk="Adobe XMP Core 5.6-c140 79.160451, 2017/05/06-01:08:21        ">
   <rdf:RDF xmlns:rdf="http://www.w3.org/1999/02/22-rdf-syntax-ns#">
      <rdf:Description rdf:about=""/>
   </rdf:RDF>
</x:xmpmeta>
                                                                                                    
                                                                                                    
                                                                                                    
                                                                                                    
                                                                                                    
                                                                                                    
                                                                                                    
                                                                                                    
                                                                                                    
                                                                                                    
                                                                                                    
                                                                                                    
                                                                                                    
                                                                                                    
                                                                                                    
                                                                                                    
                                                                                                    
                                                                                                    
                                                                                                    
                                                                                                    
                           
<?xpacket end="w"?></metadata>
<defs>
    <style>
      .cls-1 {
        fill: #fff;
        fill-rule: evenodd;
      }
    </style>
  </defs>
  <path class="cls-1" d="M580.99,80.585l-0.011.269-0.03.279-0.031.29-0.052.3-0.062.311-0.164.652-2.555,9.624h-7.209l2.739-10.287,0.072-.29,0.052-.279,0.031-.248,0.01-.114,0.01-.114-0.01-.166-0.01-.155-0.031-.145-0.041-.135-0.052-.114-0.062-.114-0.072-.1-0.082-.083-0.093-.083-0.1-.072-0.123-.052-0.124-.052-0.134-.031-0.154-.031-0.155-.01-0.175-.01-0.237.01-0.216.031-0.216.041-0.206.062-0.2.093-0.175.1-0.175.114-0.165.145-0.155.155-0.154.186-0.134.2-0.124.217-0.113.238-0.1.248-0.1.279-0.082.29-2.74,10.276h-7.2l4.243-15.916h7.21l-0.144.538,0.442-.155,0.474-.145,0.526-.114,0.556-.093,0.587-.072,0.638-.052,1.381-.041,0.628,0.021,0.6,0.041L577.56,76.4l0.515,0.1,0.463,0.145,0.433,0.176,0.381,0.207,0.35,0.238,0.3,0.269,0.268,0.3,0.226,0.331,0.175,0.362,0.145,0.4,0.1,0.424,0.061,0.455,0.021,0.5Zm-20.105,1.708-0.041.269-0.041.269-0.052.279-0.144.579L560.257,85l-0.278.9-0.35.838-0.412.786-0.485.735-0.545.662-0.608.611-0.69.559-0.742.5-0.813.435-0.886.373-0.948.321-1.009.269-1.081.207-1.154.145-2.493.114-2.09-.083-0.938-.1-0.865-.145-0.8-.186-0.731-.238-0.66-.269-0.587-.31-0.515-.352-0.453-.393-0.381-.445-0.3-.476-0.247-.517-0.165-.559-0.092-.611-0.031-.642,0.01-.248,0.01-.248,0.031-.259,0.031-.269,0.1-.538L539.225,85l0.34-1.314,0.278-.9,0.35-.838,0.423-.786,0.473-.725,0.557-.673,0.607-.611,0.68-.549,0.752-.5,0.814-.435,0.885-.373,0.948-.321,1.009-.259,1.082-.207,1.153-.145,2.493-.114,2.08,0.083,0.937,0.1,0.866,0.145,0.793,0.186,0.721,0.217,0.659,0.269,0.587,0.31,0.525,0.352,0.443,0.393,0.381,0.424,0.309,0.476,0.247,0.518,0.175,0.559,0.1,0.59,0.031,0.642v0.248l-0.02.259Zm-8.291-1.3-0.01-.166-0.011-.155-0.031-.135L552.5,80.4l-0.051-.124-0.052-.114-0.072-.093-0.093-.093-0.092-.083-0.1-.062-0.124-.062-0.123-.052-0.145-.031-0.144-.031-0.165-.01-0.175-.01-0.237.01-0.216.031-0.216.041-0.206.062-0.186.093-0.185.1-0.175.114-0.165.145-0.154.155-0.144.176-0.134.207-0.124.207-0.113.238-0.1.259-0.093.269-0.082.29L547.4,86.64l-0.072.29-0.031.145-0.021.135-0.02.124-0.011.124-0.01.114v0.114l0.01,0.165,0.011,0.155,0.031,0.145,0.041,0.135,0.041,0.124,0.062,0.1,0.072,0.1,0.093,0.093,0.092,0.083,0.1,0.062,0.114,0.062,0.134,0.052L548.175,89l0.155,0.031,0.154,0.01,0.176,0.01,0.236-.01,0.217-.031,0.216-.052,0.206-.062,0.185-.083,0.186-.1,0.175-.124,0.165-.145,0.154-.155,0.144-.176,0.134-.2L550.8,87.7l0.113-.238,0.1-.259,0.1-.269,0.083-.29,1.235-4.605,0.073-.29,0.041-.269,0.02-.134,0.011-.114,0.01-.124V80.989Zm-13.863,1.045h-8.466l0.072-.29,0.041-.279,0.02-.124,0.011-.124,0.01-.124V80.979l-0.01-.166-0.011-.155-0.03-.135-0.042-.135-0.041-.124-0.062-.1-0.072-.1-0.082-.093-0.1-.072-0.1-.073-0.113-.052-0.134-.052-0.134-.031-0.155-.031-0.154-.01L529,79.633l-0.237.01-0.216.031-0.217.041-0.206.062-0.185.093-0.186.1-0.175.114-0.164.145-0.155.155-0.144.176-0.134.207-0.124.207-0.113.238-0.1.259-0.093.269-0.082.29-1.226,4.605-0.072.29-0.031.145-0.02.135-0.021.124-0.01.124-0.01.114v0.114l0.01,0.165,0.01,0.155,0.031,0.135,0.041,0.135,0.041,0.124,0.062,0.114,0.072,0.093,0.093,0.093,0.093,0.083,0.1,0.062,0.113,0.062,0.134,0.052,0.134,0.031,0.154,0.031,0.155,0.01,0.175,0.01,0.237-.01L526.948,89l0.216-.041,0.206-.062,0.186-.093,0.185-.1,0.175-.114,0.165-.145,0.155-.155,0.144-.176,0.134-.207,0.123-.207,0.114-.238,0.1-.259,0.1-.269,0.082-.29h8.466l-0.35.7-0.412.662-0.453.611-0.515.569-0.567.528-0.607.476-0.67.424-0.721.393-0.772.341-0.824.29-0.876.248-0.927.207-0.978.155-1.03.114-2.214.093-2.071-.083-0.937-.1-0.855-.145-0.793-.186L520.2,91.71l-0.659-.269-0.587-.3-0.515-.352-0.453-.393-0.382-.435L517.3,89.5l-0.236-.517-0.176-.559-0.1-.59-0.041-.642V86.94l0.021-.259,0.02-.269,0.042-.259,0.041-.279,0.051-.279,0.145-.579L517.4,83.69l0.279-.9,0.35-.838,0.422-.786,0.474-.725,0.556-.673,0.608-.611,0.679-.549,0.752-.5,0.814-.435,0.875-.373,0.948-.321,1.02-.259,1.081-.207,1.143-.145,2.493-.114,2.07,0.083,0.937,0.1,0.865,0.145,0.793,0.176,0.732,0.228,0.659,0.269,0.587,0.3,0.515,0.352,0.453,0.383,0.381,0.435L538.2,79.2l0.247,0.517,0.175,0.548,0.1,0.6,0.031,0.631v0.135l-0.01.135ZM516.958,104.1l0.206,0.1,0.175,0.124,0.154,0.135,0.134,0.155,0.113,0.176,0.1,0.2,0.072,0.227,0.062,0.238,0.052,0.259,0.02,0.29,0.011,0.3v2.1l0.01,0.186,0.021,0.166,0.03,0.155,0.052,0.134,0.072,0.125,0.072,0.1,0.093,0.083,0.113,0.072v0.538l-0.3-.01-0.257-.031-0.216-.062-0.175-.083-0.145-.1-0.123-.135-0.1-.176-0.083-.186-0.164.186-0.186.155-0.206.135-0.226.114-0.248.083-0.267.062-0.289.041-0.309.01-0.165-.01-0.164-.021-0.155-.041-0.154-.052-0.145-.072-0.144-.083-0.134-.1-0.133-.125-0.114-.124-0.1-.145-0.092-.145-0.062-.144-0.062-.166-0.041-.166-0.021-.176-0.01-.186,0.01-.217,0.041-.207,0.062-.2,0.083-.2,0.113-.187,0.134-.165,0.154-.176,0.186-.155,0.195-.145,0.217-.124,0.226-.114,0.247-.083,0.248-.073,0.267-.041,0.278-.031,0.3-.01,0.165,0.01,0.185,0.031,0.186,0.041,0.206,0.063-0.021-.332-0.062-.289-0.092-.238-0.145-.207-0.175-.156-0.216-.1-0.257-.073-0.3-.02-0.237.01-0.216.021-0.217.041-0.185.062-0.185.073-0.165.093-0.155.1-0.134.125-0.432-.87,0.165-.124,0.185-.1,0.216-.1,0.247-.093,0.258-.072,0.257-.063,0.248-.031,0.237-.01,0.309,0.01,0.278,0.031,0.267,0.042,0.237,0.062Zm-0.155,2.825-0.2-.031-0.154-.021-0.113-.01-0.371.021-0.34.082-0.155.052-0.144.072-0.144.083-0.124.093-0.113.1-0.1.1-0.082.114-0.072.124-0.052.125-0.041.124-0.021.134-0.01.135,0.021,0.207,0.051,0.186,0.083,0.155,0.113,0.135L514.99,109l0.186,0.072,0.216,0.052,0.247,0.011,0.2-.011,0.185-.031,0.186-.062,0.175-.083,0.175-.1,0.165-.124,0.154-.156,0.155-.176v-1.417ZM516.278,82l-0.031.269-0.031.279-0.051.279-0.062.29-0.144.59L515.5,85.429h-12.39l-0.33,1.211-0.072.29-0.031.145-0.02.135-0.021.135-0.01.124-0.011.124v0.114l0.011,0.166,0.01,0.145,0.031,0.145,0.041,0.124,0.041,0.124,0.062,0.114,0.072,0.093,0.083,0.093,0.092,0.072,0.113,0.073,0.114,0.052,0.123,0.052,0.145,0.031,0.144,0.031,0.154,0.01,0.175,0.01,0.237-.01,0.217-.021,0.206-.041,0.206-.052,0.185-.073,0.175-.083,0.175-.093,0.155-.114,0.144-.135,0.134-.145,0.123-.166,0.114-.176,0.1-.2,0.092-.207,0.083-.228,0.072-.238h8.394l-0.371.652-0.412.611-0.463.569-0.515.528-0.567.486-0.607.435-0.66.4-0.71.362-0.752.31-0.8.279-0.854.228-0.907.186-1.946.259-2.143.083-2.07-.083-0.937-.1-0.865-.145-0.793-.186-0.732-.228-0.649-.269-0.587-.3-0.525-.352-0.443-.393-0.381-.435-0.309-.476-0.247-.517-0.175-.549-0.1-.6-0.031-.642V86.929l0.021-.248,0.02-.259,0.041-.269,0.042-.269,0.051-.29,0.144-.579,0.34-1.325,0.278-.9,0.35-.838,0.412-.786,0.485-.725,0.545-.673,0.618-.611,0.68-.549,0.752-.5,0.814-.435,0.875-.373,0.948-.321,1.019-.259,1.082-.207,1.143-.145,2.492-.114,2.081,0.083,0.937,0.1,0.865,0.145,0.793,0.176,0.732,0.228,0.659,0.269,0.587,0.3,0.515,0.352,0.453,0.383,0.381,0.435,0.309,0.466,0.247,0.507,0.176,0.559,0.1,0.59,0.03,0.631-0.01.259Zm-8.312-1V80.834l-0.01-.155-0.031-.145-0.031-.135-0.052-.124-0.061-.114-0.062-.1-0.082-.093-0.093-.083-0.114-.062-0.113-.062-0.123-.052-0.145-.031-0.144-.031-0.165-.01-0.175-.01-0.237.01-0.216.031-0.216.041-0.206.062-0.2.093-0.175.1-0.175.114-0.165.145-0.154.155-0.155.186-0.134.2-0.123.217-0.114.238-0.1.248-0.1.279-0.082.29-0.154.569h3.8l0.155-.569,0.072-.279,0.041-.269,0.02-.124,0.011-.124,0.01-.124V81Zm-13.441,23.1,0.165-.073,0.165-.051,0.175-.042,0.185-.041,0.2-.011,0.206-.01,0.165,0.01,0.175,0.011,0.185,0.041,0.2,0.042,0.206,0.051,0.216,0.073,0.227,0.093,0.237,0.093-0.3.962-0.154-.113-0.155-.1-0.154-.083-0.155-.072-0.154-.052L496,104.781l-0.154-.021-0.155-.01-0.175.01-0.165.031-0.154.062-0.134.073-0.1.093-0.083.114-0.041.113-0.02.125,0.01,0.134,0.031,0.124,0.051,0.125,0.062,0.113,0.093,0.1,0.113,0.093,0.124,0.083,0.154,0.083,0.731,0.331,0.32,0.165,0.278,0.176,0.226,0.176,0.175,0.2,0.134,0.217,0.1,0.238,0.052,0.259,0.02,0.29-0.01.2-0.02.176-0.052.166-0.051.165-0.083.145-0.093.145-0.113.124-0.134.124-0.144.1-0.154.093-0.165.073-0.186.062-0.195.051-0.206.031-0.227.021-0.237.01-0.453-.031-0.443-.082-0.432-.145-0.412-.207,0.37-.983,0.206,0.134,0.206,0.114,0.186,0.093,0.185,0.083L495,109l0.154,0.041,0.155,0.031,0.134,0.011,0.226-.011,0.2-.041,0.165-.062,0.134-.093,0.1-.114,0.072-.145,0.051-.165,0.011-.187-0.011-.145-0.051-.134-0.072-.135-0.093-.124-0.134-.124-0.165-.114-0.185-.114-0.216-.1-0.33-.155-0.268-.135-0.206-.114-0.154-.093-0.227-.176-0.206-.207-0.154-.228-0.113-.238-0.073-.248-0.02-.269,0.01-.176,0.021-.166,0.041-.155,0.062-.145,0.072-.134,0.093-.135,0.1-.114,0.123-.1,0.134-.093Zm-0.546-23.243-0.031.29-0.03.29-0.052.3-0.062.321-0.165.652-2.554,9.6h-7.21l2.73-10.287,0.072-.29,0.031-.145,0.02-.135,0.021-.124,0.01-.124,0.011-.124V80.968l-0.011-.166-0.01-.155-0.031-.134-0.041-.135-0.041-.124-0.062-.1-0.072-.1-0.083-.093-0.1-.073-0.1-.072-0.113-.052-0.134-.052-0.134-.031-0.154-.031-0.155-.01-0.175-.01-0.237.01-0.216.031-0.216.041-0.206.062-0.2.093-0.175.093-0.175.124-0.165.145-0.154.155-0.155.176-0.134.2-0.123.217-0.114.228-0.1.248-0.1.269-0.082.29-2.75,10.307h-7.2l2.739-10.287,0.072-.29,0.052-.279,0.031-.248,0.01-.114,0.01-.114-0.01-.166-0.01-.155-0.031-.145-0.041-.135-0.041-.114-0.062-.114-0.072-.1-0.083-.083-0.1-.083-0.1-.072-0.113-.052-0.134-.052-0.134-.031-0.154-.031-0.155-.01-0.175-.01-0.237.01-0.216.031-0.216.041-0.206.062-0.2.093-0.175.1-0.175.114-0.165.145-0.155.155-0.154.186-0.134.2-0.123.217-0.114.238-0.1.248-0.1.279-0.082.29-2.74,10.276h-7.2l4.243-15.916h7.21l-0.144.538,0.432-.155,0.484-.145,0.515-.114,0.556-.093,0.588-.072,0.638-.052,1.38-.041,0.814,0.031,0.752,0.083,0.68,0.135L480.3,76.6l0.288,0.1,0.278,0.114,0.258,0.135,0.247,0.145,0.216,0.166,0.206,0.176,0.185,0.186,0.175,0.207,0.155,0.217,0.288-.217,0.3-.207,0.309-.186,0.34-.176,0.711-.31,0.782-.248,0.835-.2,0.906-.135,0.978-.083,1.03-.031,0.629,0.021,0.6,0.041L490.56,76.4l0.515,0.1,0.463,0.145,0.433,0.176,0.381,0.207,0.35,0.238,0.3,0.269,0.268,0.3,0.226,0.331,0.175,0.362,0.145,0.4,0.1,0.424,0.061,0.455,0.021,0.5-0.01.269Zm-40.755-1.511-0.124.6-0.36,1.283-6.3,18.762L425.209,119l12.329-26.286,0.577-1.273,0.206-.559,0.164-.517,0.114-.486,0.062-.435,0.02-.4-0.031-.383-0.072-.352-0.113-.331-0.155-.311-0.185-.3-0.237-.3-0.268-.279-0.638-.569-5.15-2.7,14.821-10.876,3.945,1.521,0.494,0.217,0.443,0.248,0.391,0.279,0.34,0.311,0.3,0.341,0.247,0.362,0.2,0.4,0.144,0.435,0.1,0.455,0.062,0.486,0.01,0.517-0.031.549Zm-16.088-9.717-0.113.435-0.175.455-0.237.476-6.963,12.522-0.164.383-0.1.373-0.062.362,0.01,0.341,0.021,0.166,0.031,0.155,0.051,0.145,0.062,0.145,0.072,0.135,0.082,0.124,0.093,0.1,0.113,0.1,0.124,0.083,0.124,0.083,0.144,0.052,0.154,0.052,0.165,0.031,0.185,0.01h0.186l0.2-.021,0.422-.1,0.463-.186,0.5-.269,0.535-.362L414.312,99.3l-0.525.352-0.525.269-0.5.186-0.474.1-0.442.031-0.206-.011-0.2-.02-0.186-.052-0.175-.062-0.164-.083-0.155-.093-0.134-.1-0.123-.124-0.1-.145-0.093-.145-0.072-.176-0.052-.176-0.031-.2-0.02-.2V98.437l0.031-.228,0.113-.486,0.206-.528,0.3-.569,10.938-16.868,0.257-.435,0.2-.414,0.144-.393,0.1-.383,0.052-.352,0.01-.341-0.031-.321-0.082-.3-0.114-.279L422.1,76.27l-0.2-.248-0.226-.228-0.258-.217-0.3-.207-0.319-.186-0.36-.166-4.718-1.987L431.389,65,435.4,66.17l0.247,0.1L435.88,66.4l0.226,0.165,0.227,0.186,0.206,0.217,0.185,0.238,0.165,0.279,0.134,0.29,0.1,0.331,0.062,0.341,0.031,0.373-0.021.393ZM396,77.036l13.606-6.5,5.953,2.546-13.431,6.654Zm67.853,27.434,0.155-.145,0.154-.124,0.165-.093,0.175-.093,0.185-.062,0.186-.042,0.2-.031,0.206-.01,0.3,0.01,0.289,0.042,0.267,0.062,0.248,0.083,0.236,0.114,0.206,0.134,0.206,0.155,0.176,0.187,0.164,0.207,0.145,0.227,0.113,0.249,0.1,0.269,0.072,0.3,0.062,0.321,0.031,0.341,0.01,0.362-0.01.331-0.031.311-0.062.29-0.072.279-0.1.269-0.113.248-0.145.239-0.164.217-0.186.2-0.206.176-0.216.145-0.247.124-0.258.094-0.278.062-0.309.041-0.319.01-0.186-.01-0.195-.021-0.206-.041-0.206-.062-0.186-.062-0.154-.073-0.113-.082-0.083-.083v2.618h-1.03v-8.165h1.03v0.486Zm0,4.191,0.062,0.073,0.093,0.072,0.113,0.073,0.144,0.072L464.42,109l0.154,0.041,0.155,0.021,0.154,0.01,0.237-.01,0.216-.021,0.2-.041,0.2-.062,0.164-.083,0.165-.093,0.144-.1,0.124-.134,0.113-.145,0.1-.155,0.083-.186,0.062-.2,0.051-.207,0.041-.228,0.021-.248,0.01-.269-0.01-.269-0.021-.249-0.031-.238-0.051-.207-0.072-.2-0.072-.176-0.093-.155-0.113-.135-0.124-.124-0.134-.1-0.165-.082-0.164-.073-0.2-.062-0.206-.041-0.227-.021-0.247-.01-0.113.01-0.124.031-0.144.041-0.144.073-0.155.083-0.134.082-0.113.094-0.1.093v3.4Zm6.293-3.735,0.144-.249,0.175-.207,0.176-.186,0.206-.145,0.216-.114,0.237-.083,0.257-.051,0.268-.021,0.155,0.01,0.185,0.011,0.216,0.031,0.247,0.041-0.432,1.025-0.165-.1-0.175-.072-0.165-.042-0.175-.01-0.134.01-0.134.021-0.123.041-0.124.052-0.124.073-0.113.082-0.1.1-0.1.124-0.185.269-0.124.29-0.082.321-0.021.341v3.374h-1.04v-5.878h1.04v0.942Zm2.874,1.335,0.062-.3,0.082-.279,0.1-.269,0.124-.248,0.144-.238,0.175-.218,0.185-.2,0.206-.166,0.217-.145,0.236-.124,0.237-.093,0.268-.062,0.268-.042,0.288-.01,0.309,0.01,0.289,0.042,0.267,0.062,0.248,0.093,0.236,0.1,0.217,0.144,0.195,0.166,0.186,0.186,0.165,0.207,0.134,0.238,0.123,0.249,0.093,0.269,0.082,0.289,0.052,0.3,0.031,0.331,0.01,0.341-0.01.342-0.031.331-0.062.31-0.072.29-0.1.269-0.124.249-0.144.238-0.165.207-0.185.2-0.2.166-0.216.145-0.237.113-0.247.094-0.268.062-0.278.041-0.3.01-0.3-.01-0.289-.041-0.268-.062-0.247-.094-0.237-.124-0.216-.145-0.2-.165-0.185-.2-0.165-.217-0.144-.228-0.113-.259-0.1-.269-0.072-.279-0.062-.31-0.031-.321-0.01-.342,0.01-.331Zm1.061,0.91,0.01,0.249,0.031,0.227,0.041,0.218,0.062,0.2,0.062,0.187,0.082,0.165,0.093,0.145,0.092,0.124,0.124,0.114,0.124,0.093,0.133,0.083,0.155,0.062,0.165,0.041,0.175,0.021,0.185,0.01,0.175-.01,0.165-.031,0.165-.041,0.144-.062,0.134-.083,0.134-.1,0.113-.124,0.114-.134,0.092-.156,0.083-.165,0.072-.186,0.051-.187,0.052-.217,0.031-.217,0.01-.238,0.01-.249-0.01-.258-0.01-.249-0.031-.228-0.042-.217-0.061-.2-0.062-.176-0.082-.166-0.083-.135-0.1-.134-0.123-.1-0.124-.093-0.134-.082-0.154-.063-0.165-.041-0.175-.021-0.186-.01-0.165.01-0.164.021-0.155.052-0.144.062-0.144.083-0.124.093-0.113.124-0.113.134-0.1.156-0.083.165-0.072.176-0.062.2-0.041.2-0.031.228-0.02.228-0.011.248Zm5.736-3.467,0.021-.258,0.052-.238,0.061-.228,0.072-.217,0.093-.2,0.113-.186,0.134-.166,0.145-.145,0.154-.134,0.155-.1,0.185-.093,0.185-.072,0.2-.042,0.206-.031,0.227-.01,0.226,0.01,0.237,0.031,0.247,0.042,0.258,0.072-0.289.766-0.309-.083-0.144-.01-0.134-.01-0.226.02-0.206.073-0.186.1-0.164.166-0.134.186-0.093.217-0.062.238-0.02.269,0.01,0.156,0.02,0.155h1.185v0.88h-1.185v5h-1.04v-5h-0.844v-0.88h0.844Zm3.317,2.6,0.072-.321,0.093-.3,0.123-.279,0.155-.269,0.175-.249,0.206-.227,0.206-.187,0.206-.155,0.216-.134,0.227-.114,0.237-.083,0.247-.062,0.257-.042,0.258-.01,0.309,0.01,0.278,0.031,0.278,0.052,0.247,0.083,0.237,0.1,0.216,0.114,0.206,0.155,0.186,0.166,0.164,0.176,0.134,0.186,0.124,0.207,0.093,0.218,0.072,0.227,0.062,0.249,0.03,0.258,0.011,0.28-0.021.331-0.062.3h-4.2l0.01,0.248,0.021,0.238,0.052,0.218,0.061,0.207,0.072,0.186,0.093,0.176,0.113,0.166,0.134,0.144,0.124,0.114L485,108.806l0.144,0.083,0.155,0.073,0.165,0.051,0.175,0.031,0.185,0.021,0.185,0.01,0.217-.01,0.206-.021,0.195-.041,0.2-.052,0.175-.072,0.175-.093,0.165-.1,0.155-.124,0.432,0.755-0.134.114-0.175.114-0.195.1-0.237.093-0.32.1-0.329.073-0.361.041-0.371.01-0.267-.01-0.258-.041-0.247-.052-0.237-.083-0.226-.1-0.227-.135-0.206-.155-0.2-.176-0.195-.217-0.176-.238-0.144-.249-0.123-.269-0.093-.29-0.072-.3-0.041-.32-0.011-.342,0.011-.352Zm4.295-.041-0.021-.3-0.082-.269-0.124-.248-0.165-.228-0.113-.113-0.123-.094-0.134-.072-0.134-.072-0.155-.052-0.165-.031-0.164-.021-0.186-.01-0.175.01-0.154.021-0.155.031-0.154.052-0.134.062-0.134.082-0.247.2-0.2.228-0.154.248-0.114.279-0.051.3h3.234Zm2.307,2.39,0.206,0.114,0.185,0.093,0.186,0.083L490.477,109l0.155,0.041,0.154,0.031,0.134,0.011,0.227-.011,0.2-.041,0.164-.062,0.134-.093,0.114-.114,0.072-.145,0.051-.165,0.01-.187-0.01-.145-0.051-.134-0.072-.135-0.1-.124-0.134-.124-0.155-.114-0.195-.114-0.217-.1-0.329-.155-0.268-.135-0.206-.114-0.155-.093-0.226-.176-0.206-.207-0.155-.228-0.113-.238-0.072-.248-0.021-.269,0.011-.176,0.02-.166,0.041-.155,0.062-.145,0.072-.134,0.093-.135,0.1-.114,0.124-.1,0.134-.093L490,104.1l0.164-.073,0.165-.051,0.175-.042,0.186-.041,0.195-.011,0.206-.01,0.165,0.01,0.175,0.011,0.186,0.041,0.195,0.042,0.206,0.051,0.217,0.073,0.226,0.093,0.237,0.093-0.288.962-0.155-.113-0.154-.1-0.155-.083-0.154-.072-0.165-.052-0.154-.041-0.155-.021-0.154-.01-0.176.01-0.164.031-0.155.062-0.134.073-0.1.093-0.082.114-0.041.113-0.021.125,0.01,0.134,0.031,0.124,0.052,0.125,0.072,0.113,0.082,0.1,0.114,0.093,0.133,0.083,0.145,0.083,0.731,0.331,0.33,0.165,0.278,0.176,0.226,0.176,0.175,0.2,0.134,0.217,0.1,0.238,0.052,0.259,0.02,0.29-0.01.2-0.021.176-0.051.166-0.052.165-0.082.145-0.093.145-0.113.124-0.134.124-0.144.1-0.155.093-0.175.073-0.175.062-0.206.051-0.206.031-0.226.021-0.237.01-0.453-.031L490,109.852l-0.433-.145-0.412-.207,0.371-.983Zm10.382,1.211h-1.04v-5h-0.793v-0.89h1.833v5.888Zm-0.113-6.923-0.114.062-0.113.041-0.134.01-0.124-.01L499.407,103l-0.113-.062-0.093-.083-0.082-.1-0.062-.1-0.041-.124-0.011-.124,0.011-.125,0.041-.124,0.062-.1,0.082-.1,0.093-.083,0.1-.051,0.123-.042,0.124-.01,0.134,0.01,0.113,0.042,0.114,0.062,0.092,0.083,0.083,0.093,0.061,0.113,0.042,0.114,0.01,0.125-0.01.134-0.042.114-0.061.114-0.083.093Zm1.411,3.322,0.061-.3,0.083-.279,0.1-.269,0.123-.248,0.145-.238,0.175-.218,0.185-.2,0.206-.166,0.216-.145,0.237-.124,0.247-.093,0.258-.062,0.278-.042,0.288-.01,0.309,0.01,0.278,0.042,0.268,0.062,0.258,0.093,0.237,0.1,0.206,0.144,0.206,0.166,0.175,0.186,0.164,0.207,0.145,0.238,0.113,0.249,0.1,0.269,0.072,0.289,0.062,0.3,0.031,0.331,0.01,0.341-0.01.342-0.031.331-0.062.31-0.072.29-0.1.269-0.124.249-0.144.238-0.165.207-0.185.2-0.206.166-0.216.145-0.227.113-0.247.094-0.268.062-0.278.041-0.3.01-0.309-.01-0.278-.041-0.278-.062-0.247-.094-0.237-.124-0.216-.145-0.2-.165-0.185-.2-0.165-.217-0.144-.228-0.114-.259-0.1-.269-0.072-.279-0.061-.31-0.031-.321-0.011-.342,0.011-.331Zm1.06,0.91,0.011,0.249,0.031,0.227,0.041,0.218,0.062,0.2,0.061,0.187,0.083,0.165,0.093,0.145,0.1,0.124,0.113,0.114,0.123,0.093,0.145,0.083,0.154,0.062,0.165,0.041,0.175,0.021,0.185,0.01,0.175-.01,0.165-.031,0.155-.041,0.154-.062,0.134-.083,0.124-.1,0.113-.124,0.113-.134,0.093-.156,0.093-.165,0.072-.186,0.051-.187,0.042-.217,0.041-.217,0.01-.238,0.01-.249-0.01-.258-0.01-.249-0.031-.228-0.041-.217-0.062-.2-0.062-.176-0.082-.166-0.083-.135-0.1-.134-0.123-.1-0.124-.093-0.134-.082-0.154-.063-0.165-.041-0.175-.021-0.186-.01-0.175.01-0.165.021-0.154.052-0.144.062-0.134.083-0.134.093-0.113.124-0.114.134-0.1.156-0.082.165-0.072.176-0.062.2-0.041.2-0.031.228-0.021.228-0.01.248Zm6.3-2.432,0.134-.207,0.164-.176,0.176-.144,0.195-.125,0.216-.093,0.248-.072,0.257-.042,0.278-.01,0.237,0.01,0.216,0.031,0.2,0.042,0.186,0.062,0.175,0.083,0.154,0.1,0.144,0.124,0.134,0.135,0.1,0.155,0.1,0.176,0.083,0.186,0.061,0.218,0.052,0.227,0.041,0.249,0.021,0.269,0.01,0.279v3.633h-1.03v-3.643L511.313,106l-0.02-.186-0.031-.166-0.041-.155-0.052-.145-0.051-.114-0.072-.1-0.072-.094-0.093-.072-0.093-.072-0.113-.052-0.124-.042-0.134-.031-0.144-.01-0.165-.01-0.175.01-0.185.041-0.185.073-0.2.093-0.186.114-0.154.124-0.134.145-0.113.145v4.357h-1.041v-5.878h0.711Zm12.03,3.281,0.02,0.217,0.041,0.2,0.083,0.176,0.123,0.145,0.145,0.124,0.164,0.083L521.572,109l0.206,0.021v0.941l-0.247-.01-0.227-.021L521.1,109.9l-0.2-.051-0.185-.062-0.165-.073-0.144-.093-0.134-.1-0.124-.124-0.1-.124-0.082-.155-0.072-.155-0.052-.176L519.8,108.6l-0.02-.2-0.011-.218v-6.6h1.041v6.437Zm5.2-1.718,0.072-.321,0.093-.3,0.123-.279,0.155-.269,0.175-.249,0.206-.227,0.2-.187,0.216-.155,0.216-.134,0.227-.114,0.237-.083,0.247-.062,0.257-.042,0.258-.01L529,103.88l0.278,0.031,0.278,0.052,0.247,0.083,0.237,0.1,0.216,0.114,0.206,0.155,0.186,0.166,0.154,0.176,0.144,0.186,0.114,0.207,0.1,0.218,0.072,0.227,0.051,0.249,0.031,0.258,0.01,0.28-0.02.331-0.021.155-0.041.145h-4.2l0.01,0.248,0.021,0.238,0.051,0.218,0.062,0.207,0.072,0.186,0.1,0.176,0.113,0.166,0.134,0.144,0.124,0.114,0.144,0.093,0.144,0.083,0.155,0.073,0.165,0.051,0.175,0.031,0.175,0.021,0.2,0.01,0.217-.01,0.206-.021L529.5,109l0.2-.052,0.175-.072,0.175-.093,0.155-.1,0.154-.124,0.443,0.755-0.134.114-0.175.114-0.2.1-0.236.093-0.32.1-0.34.073-0.35.041-0.371.01-0.267-.01-0.258-.041-0.257-.052-0.237-.083-0.227-.1-0.216-.135-0.206-.155-0.2-.176-0.206-.217-0.175-.238-0.144-.249-0.113-.269-0.1-.29-0.062-.3-0.041-.32-0.011-.342,0.011-.352Zm4.284-.041-0.02-.3-0.072-.269-0.124-.248-0.175-.228-0.113-.113-0.124-.094-0.123-.072-0.145-.072-0.154-.052-0.155-.031-0.175-.021-0.175-.01-0.175.01-0.154.021-0.165.031-0.144.052-0.145.062-0.133.082-0.124.094-0.124.1-0.2.228-0.155.248-0.1.279-0.051.3h3.223Zm1.844,0,0.062-.3,0.082-.289,0.114-.269,0.133-.249,0.155-.238,0.185-.217,0.2-.2,0.216-.165,0.227-.145,0.247-.114,0.247-.093,0.278-.062,0.278-.042,0.3-.01,0.2,0.01,0.185,0.021,0.175,0.052,0.186,0.062,0.175,0.072,0.165,0.094,0.175,0.113,0.165,0.135,0.278-.455h0.628v8.175h-1.04V109.5l-0.124.114-0.134.093-0.165.083-0.175.062-0.206.051-0.216.031-0.227.021-0.257.01-0.289-.01-0.278-.041-0.257-.062-0.247-.083-0.227-.114-0.206-.145-0.2-.165-0.175-.187-0.154-.207-0.144-.238-0.114-.248-0.092-.269-0.083-.29-0.051-.3-0.031-.331-0.01-.342,0.01-.341Zm1.051,0.921,0.02,0.227,0.041,0.218,0.052,0.207,0.072,0.186,0.082,0.186,0.093,0.155,0.113,0.156,0.134,0.134,0.134,0.114,0.155,0.093,0.154,0.083L534.415,109l0.186,0.041,0.185,0.031,0.206,0.011,0.185-.011,0.165-.01,0.165-.031,0.144-.041,0.144-.062,0.124-.063,0.124-.082,0.1-.083v-3.5l-0.114-.1-0.123-.094-0.124-.082-0.134-.062-0.144-.052-0.154-.031-0.155-.021-0.165-.01-0.216.01-0.2.031-0.195.041-0.176.073-0.164.083-0.155.1-0.134.124-0.134.135-0.113.155-0.093.166-0.082.186-0.072.186-0.052.207-0.041.218-0.02.227-0.011.238Zm6.416,0.548,0.021,0.321,0.051,0.269,0.093,0.238,0.134,0.186,0.165,0.145L540.265,109l0.237,0.062,0.278,0.021,0.248-.021,0.236-.052,0.237-.093,0.217-.134,0.2-.156,0.155-.165,0.123-.176,0.083-.186v-4.129h1.04v5.888h-1.04v-0.828l-0.1.166-0.155.165-0.206.155-0.237.156-0.257.124-0.258.093-0.257.052-0.247.02-0.237-.01-0.216-.021-0.206-.051-0.186-.052-0.185-.083-0.155-.093-0.154-.114-0.134-.134-0.124-.145-0.1-.166-0.082-.176-0.072-.186-0.052-.2-0.041-.217-0.02-.238-0.011-.248v-3.86h1.03v3.756Zm6.643,2.132h-1.03v-5h-0.8v-0.89h1.833v5.888Zm-0.113-6.923-0.1.062-0.123.041-0.124.01-0.124-.01L545.539,103l-0.1-.062-0.1-.083-0.083-.1-0.051-.1-0.041-.124-0.011-.124,0.011-.125,0.041-.124,0.051-.1,0.083-.1,0.1-.083,0.1-.051,0.123-.042,0.124-.01,0.124,0.01,0.123,0.042,0.1,0.062,0.1,0.083,0.083,0.093,0.061,0.113,0.031,0.114,0.011,0.125-0.011.134-0.031.114-0.061.114-0.083.093Zm2.791,1.531,0.155-.145,0.154-.124,0.165-.093,0.175-.093,0.186-.062,0.185-.042,0.206-.031,0.206-.01,0.3,0.01,0.288,0.042,0.268,0.062,0.257,0.083,0.227,0.114,0.216,0.134,0.2,0.155,0.185,0.187,0.165,0.207,0.134,0.227,0.124,0.249,0.092,0.269,0.083,0.3,0.051,0.321,0.031,0.341,0.01,0.362-0.01.331-0.031.311-0.051.29-0.083.279-0.092.269-0.124.248-0.144.239-0.165.217-0.185.2-0.2.176-0.227.145-0.237.124-0.267.094-0.278.062-0.3.041-0.319.01-0.2-.01-0.2-.021-0.206-.041-0.206-.062-0.195-.062-0.155-.073-0.113-.082-0.083-.083v2.618H547.9v-8.165h1.03v0.486Zm0,4.191,0.062,0.073,0.093,0.072,0.123,0.073,0.145,0.072L549.5,109l0.155,0.041,0.154,0.021,0.155,0.01,0.236-.01,0.217-.021,0.206-.041,0.185-.062,0.175-.083,0.155-.093,0.144-.1,0.124-.134,0.113-.145,0.1-.155,0.082-.186,0.062-.2,0.052-.207,0.041-.228,0.02-.248,0.011-.269-0.011-.269-0.02-.249-0.031-.238-0.052-.207-0.062-.2-0.072-.176-0.092-.155-0.114-.135-0.123-.124-0.144-.1-0.155-.082-0.175-.073-0.185-.062-0.217-.041-0.216-.021-0.247-.01-0.124.01-0.123.031-0.144.041-0.155.073-0.154.083-0.134.082-0.114.094-0.1.093v3.4Zm6.211-3.994,0.154-.186,0.165-.166,0.175-.134,0.175-.114,0.2-.083,0.2-.062,0.216-.042,0.216-.01,0.3,0.01,0.278,0.042,0.258,0.062,0.226,0.083,0.217,0.114,0.175,0.134,0.164,0.166,0.134,0.186,0.114-.166,0.144-.145,0.175-.134,0.216-.124,0.237-.1,0.247-.072,0.247-.042,0.248-.01,0.216,0.01,0.216,0.021,0.2,0.041,0.175,0.063,0.165,0.072,0.165,0.1,0.133,0.1,0.134,0.134,0.114,0.145,0.1,0.156,0.082,0.165,0.072,0.186,0.052,0.187,0.041,0.217,0.02,0.217,0.011,0.238v3.923l-1.041.01v-3.726l-0.02-.32-0.052-.28-0.092-.248-0.134-.186-0.165-.156-0.206-.114-0.237-.062-0.278-.02-0.185.01-0.186.052-0.165.072-0.175.1-0.144.124-0.123.124-0.1.135-0.073.144v4.337H557.5v-4.171l-0.021-.207-0.062-.176-0.1-.155-0.144-.135-0.175-.113-0.2-.083-0.226-.042-0.258-.02-0.154.02-0.165.042-0.165.083-0.175.1-0.165.124-0.134.124-0.113.135-0.082.145v4.326h-1.041v-5.878h0.68Zm7.9,1.635,0.072-.321,0.1-.3,0.113-.279,0.155-.269,0.175-.249,0.206-.227,0.206-.187,0.206-.155,0.216-.134,0.226-.114,0.237-.083,0.248-.062,0.257-.042,0.258-.01,0.309,0.01,0.278,0.031,0.278,0.052,0.247,0.083,0.237,0.1,0.216,0.114,0.206,0.155,0.185,0.166,0.165,0.176,0.134,0.186,0.124,0.207,0.092,0.218,0.083,0.227,0.051,0.249,0.031,0.258,0.011,0.28-0.021.331-0.062.3h-4.2l0.01,0.248,0.021,0.238,0.051,0.218,0.062,0.207,0.072,0.186,0.093,0.176,0.113,0.166,0.134,0.144,0.134,0.114,0.134,0.093,0.154,0.083,0.155,0.073,0.154,0.051,0.175,0.031,0.186,0.021,0.185,0.01,0.217-.01,0.216-.021,0.2-.041,0.2-.052,0.175-.072,0.175-.093,0.155-.1,0.154-.124,0.433,0.755-0.134.114-0.165.114-0.206.1-0.226.093-0.32.1-0.339.073-0.351.041-0.381.01-0.268-.01-0.257-.041-0.247-.052-0.237-.083-0.227-.1-0.226-.135-0.206-.155-0.2-.176-0.2-.217-0.175-.238-0.144-.249-0.124-.269-0.092-.29-0.072-.3-0.042-.32-0.01-.342,0.01-.352Zm4.295-.041-0.021-.3-0.082-.269-0.124-.248-0.165-.228-0.113-.113-0.124-.094-0.134-.072-0.133-.072-0.155-.052-0.154-.031-0.176-.021-0.175-.01-0.175.01-0.154.021-0.165.031-0.144.052-0.144.062-0.134.082-0.124.094-0.123.1-0.2.228-0.155.248-0.1.279-0.051.3h3.224Zm3.151-1.522,0.134-.207,0.165-.176,0.175-.144,0.2-.125,0.216-.093,0.247-.072,0.258-.042,0.278-.01,0.237,0.01,0.216,0.031,0.2,0.042,0.185,0.062,0.175,0.083,0.155,0.1,0.144,0.124,0.134,0.135,0.1,0.155,0.1,0.176,0.082,0.186,0.062,0.218L574,105.422l0.042,0.249,0.02,0.269,0.01,0.279v3.633h-1.029v-3.643L573.018,106,573,105.816l-0.031-.166-0.041-.155-0.041-.145-0.062-.114-0.062-.1-0.072-.094-0.092-.072-0.1-.072-0.1-.052-0.124-.042-0.144-.031-0.144-.01-0.155-.01-0.175.01-0.185.041-0.186.073-0.2.093-0.186.114-0.154.124-0.144.145-0.114.145v4.357h-1.03v-5.878h0.7Zm5.428-1.987,1.03-.393v1.615h1.607v0.838h-1.607v2.908l0.021,0.341,0.041,0.29,0.082,0.228,0.041,0.1,0.062,0.083,0.144,0.135,0.186,0.1,0.216,0.062,0.258,0.021,0.206-.011,0.2-.041,0.206-.062,0.217-.093,0.144,0.921-0.33.072-0.34.052-0.36.031-0.371.01-0.175-.01-0.155-.021-0.164-.041-0.145-.062-0.144-.073-0.134-.093-0.134-.1-0.123-.124-0.113-.135-0.093-.134-0.082-.156-0.073-.155-0.051-.165-0.031-.176-0.021-.187-0.01-.2v-3.322h-0.68v-0.838h0.68v-1.222Z" transform="translate(-396 -65)"/>
</svg>
