<svg xmlns="http://www.w3.org/2000/svg" width="67" height="67" viewBox="0 0 67 67">
  <defs>
    <style>
      .cls-1 {
        fill: #fff;
        fill-rule: evenodd;
      }
    </style>
  </defs>
  <path class="cls-1" d="M983.4,1542.98l-9.6,5.92c-1.34.78-4.355,1-7.146,1,0.515-.92.363-2.04-0.452-3.35a1.037,1.037,0,0,0-.67-0.93,9.828,9.828,0,0,0-7.588-3.53h-4.355a10.539,10.539,0,0,1-6.365-2.01c-4.03-3.02-10.33.26-13.4,2.23v-2.34H926V1569h7.817v-3.35h14.516c2.234,0,4.579-.22,6.812-0.34l14.517-2.23a6.686,6.686,0,0,0,1.563-.22,7.426,7.426,0,0,0,3.685-1.9l16.862-13.4a3.314,3.314,0,0,0,.558-4.47C990.32,1540.41,988.31,1540.41,983.4,1542.98Zm-51.814,23.79h-3.35V1542.2h3.35v24.57ZM990.432,1546l-16.974,13.17-0.111.11a3.835,3.835,0,0,1-2.569,1.34,4.268,4.268,0,0,1-1.228.12l-14.74,2.23a42.744,42.744,0,0,1-6.477.45H933.817v-18.43c2.68-1.9,8.933-5.47,12.06-3.01a12.955,12.955,0,0,0,7.705,2.45h4.355a7.691,7.691,0,0,1,6.365,3.24,2.059,2.059,0,0,1,.446,1.56c-0.335.56-1.675,0.79-3.126,0.9h-12.06c-3.462,0-5.584,1.67-5.584,4.46a1.117,1.117,0,1,0,2.233,0c0-.55,0-2.23,3.351-2.23h12.73c5.248,0.11,10.161,0,12.73-1.34l9.6-5.92c4.69-2.34,5.137-1.78,6.03-.44A1.055,1.055,0,0,1,990.432,1546ZM993,1510.93V1502H969.55a1.115,1.115,0,1,0,0,2.23h7.817v6.7H979.6v2.24H959.5v13.4h2.233v4.46h1.117v3.35h11.167v-3.35h1.116v-4.46H993v-13.4h-2.233v-2.24H993Zm-13.4-6.7h11.167v4.47H979.6v-4.47Zm-7.817,27.92h-6.7v-1.12h6.7v1.12Zm1.117-3.35h-8.933v-2.23H972.9v2.23Zm17.867-4.47H961.733v-8.93h29.034v8.93Zm-2.234-11.16h-6.7v-2.24h6.7v2.24Zm-23.45,26.8a1.058,1.058,0,0,0,1.117-1.12v-1.12a1.117,1.117,0,0,0-2.233,0v1.12A1.057,1.057,0,0,0,965.083,1539.97Zm-1.116,3.35a1.117,1.117,0,0,0,2.233,0v-1.12a1.117,1.117,0,1,0-2.233,0v1.12Zm4.466-3.35a1.058,1.058,0,0,0,1.117-1.12v-1.12a1.117,1.117,0,0,0-2.233,0v1.12A1.057,1.057,0,0,0,968.433,1539.97Zm-1.116,3.35a1.117,1.117,0,0,0,2.233,0v-1.12a1.117,1.117,0,1,0-2.233,0v1.12Zm0,4.46a1.117,1.117,0,1,0,2.233,0v-1.11a1.117,1.117,0,1,0-2.233,0v1.11Zm3.35-4.46a1.117,1.117,0,0,0,2.233,0v-1.12a1.117,1.117,0,1,0-2.233,0v1.12Zm1.116-3.35a1.058,1.058,0,0,0,1.117-1.12v-1.12a1.117,1.117,0,0,0-2.233,0v1.12A1.057,1.057,0,0,0,971.783,1539.97Zm-1.116,7.81a1.117,1.117,0,1,0,2.233,0v-1.11a1.117,1.117,0,1,0-2.233,0v1.11Z" transform="translate(-926 -1502)"/>
</svg>
