<svg xmlns="http://www.w3.org/2000/svg" xmlns:xlink="http://www.w3.org/1999/xlink" width="0" height="0" fill="#000">
    <!-- menu and enter icons -->
    <symbol id="enter" viewBox="0 0 512 512">
        <path d="m512 60v392c0 33.085938-26.914062 60-60 60h-241c-33.085938 0-60-26.914062-60-60v-80h40v80c0 11.027344 8.972656 20 20 20h241c11.027344 0 20-8.972656 20-20v-392c0-11.027344-8.972656-20-20-20h-241c-11.027344 0-20 8.972656-20 20v80h-40v-80c0-33.085938 26.914062-60 60-60h241c33.085938 0 60 26.914062 60 60zm-299.285156 262 28.285156 28.285156 94.285156-94.285156-94.285156-94.285156-28.285156 28.285156 46 46h-258.714844v40h258.714844zm0 0"/>
    </symbol>
    <symbol id="menu" viewBox="0 0 32 32">
        <path d="M29,6H3A1,1,0,0,0,3,8H29a1,1,0,0,0,0-2Z"/>
        <path d="M3,17H16a1,1,0,0,0,0-2H3a1,1,0,0,0,0,2Z"/>
        <path d="M25,24H3a1,1,0,0,0,0,2H25a1,1,0,0,0,0-2Z"/>
    </symbol>
    <symbol id="close" viewBox="0 0 21.9 21.9">
        <path d="M14.1,11.3c-0.2-0.2-0.2-0.5,0-0.7l7.5-7.5c0.2-0.2,0.3-0.5,0.3-0.7s-0.1-0.5-0.3-0.7l-1.4-1.4C20,0.1,19.7,0,19.5,0  c-0.3,0-0.5,0.1-0.7,0.3l-7.5,7.5c-0.2,0.2-0.5,0.2-0.7,0L3.1,0.3C2.9,0.1,2.6,0,2.4,0S1.9,0.1,1.7,0.3L0.3,1.7C0.1,1.9,0,2.2,0,2.4  s0.1,0.5,0.3,0.7l7.5,7.5c0.2,0.2,0.2,0.5,0,0.7l-7.5,7.5C0.1,19,0,19.3,0,19.5s0.1,0.5,0.3,0.7l1.4,1.4c0.2,0.2,0.5,0.3,0.7,0.3  s0.5-0.1,0.7-0.3l7.5-7.5c0.2-0.2,0.5-0.2,0.7,0l7.5,7.5c0.2,0.2,0.5,0.3,0.7,0.3s0.5-0.1,0.7-0.3l1.4-1.4c0.2-0.2,0.3-0.5,0.3-0.7  s-0.1-0.5-0.3-0.7L14.1,11.3z"/>
    </symbol>
    <!-- contacts icons -->
    <symbol id="time" viewBox="0 0 19 19">
        <path d="M18.242,13.190 C17.240,15.526 15.537,17.236 13.182,18.241 C12.006,18.743 10.772,19.000 9.484,19.000 C8.196,19.000 6.972,18.746 5.797,18.241 C3.461,17.239 1.751,15.530 0.748,13.190 C0.245,12.017 -0.000,10.779 -0.000,9.489 C-0.000,8.201 0.245,6.972 0.748,5.800 C1.751,3.459 3.461,1.761 5.797,0.759 C6.972,0.254 8.196,-0.000 9.484,-0.000 C10.772,-0.000 12.006,0.256 13.183,0.759 C15.538,1.763 17.240,3.463 18.242,5.800 C18.746,6.976 19.000,8.201 19.000,9.489 C19.000,10.779 18.746,12.013 18.242,13.190 ZM16.725,5.311 C15.977,4.033 14.957,3.016 13.671,2.266 C12.392,1.520 10.991,1.143 9.484,1.143 C7.978,1.143 6.586,1.517 5.308,2.266 C4.031,3.014 3.009,4.030 2.265,5.311 C1.523,6.587 1.153,7.982 1.153,9.489 C1.153,10.622 1.367,11.716 1.808,12.743 C2.250,13.773 2.841,14.671 3.584,15.414 C4.327,16.157 5.215,16.744 6.243,17.191 C7.272,17.638 8.352,17.856 9.484,17.856 C10.991,17.856 12.392,17.480 13.671,16.734 C14.958,15.983 15.979,14.968 16.725,13.689 C17.475,12.401 17.847,10.997 17.847,9.489 C17.847,7.982 17.473,6.589 16.725,5.311 ZM12.196,13.148 L9.090,10.040 C8.965,9.915 8.913,9.760 8.934,9.573 C8.934,9.542 8.913,9.500 8.913,9.489 L8.913,4.022 C8.913,3.700 9.183,3.440 9.484,3.440 C9.806,3.440 10.087,3.700 10.087,4.022 L10.087,9.406 L12.996,12.337 C13.219,12.562 13.234,12.909 12.996,13.148 C12.788,13.356 12.404,13.356 12.196,13.148 Z"/>
    </symbol>
    <symbol id="mail" viewBox="0 0 19 15">
        <path d="M16.676,15.000 L2.323,15.000 C1.042,15.000 -0.000,13.919 -0.000,12.590 L-0.000,2.410 C-0.000,1.081 1.042,-0.000 2.323,-0.000 L16.680,-0.000 C17.962,-0.000 19.003,1.085 19.000,2.414 L19.000,12.590 C19.000,13.919 17.958,15.000 16.676,15.000 ZM17.938,12.590 L17.938,2.414 C17.938,1.692 17.372,1.105 16.676,1.105 L2.323,1.105 C1.627,1.105 1.061,1.692 1.061,2.414 L1.061,12.590 C1.061,13.311 1.627,13.899 2.323,13.899 L16.680,13.899 C17.376,13.899 17.942,13.311 17.942,12.590 L17.938,12.590 ZM16.668,12.749 C16.562,12.863 16.425,12.920 16.283,12.920 C16.153,12.920 16.020,12.871 15.917,12.769 L11.192,8.112 L9.867,9.343 C9.769,9.437 9.639,9.486 9.513,9.486 C9.388,9.486 9.262,9.441 9.160,9.347 L7.870,8.152 L3.117,12.765 C3.015,12.863 2.885,12.912 2.756,12.912 C2.614,12.912 2.473,12.851 2.366,12.736 C2.166,12.512 2.178,12.165 2.390,11.957 L7.072,7.410 L2.370,3.050 C2.150,2.846 2.131,2.500 2.327,2.271 C2.524,2.043 2.858,2.023 3.078,2.227 L8.165,6.949 C8.197,6.974 8.224,6.998 8.252,7.027 C8.252,7.031 8.256,7.035 8.259,7.039 L9.510,8.197 L15.917,2.231 C16.138,2.027 16.472,2.047 16.668,2.271 C16.865,2.500 16.845,2.846 16.629,3.050 L11.982,7.374 L16.649,11.970 C16.861,12.178 16.869,12.528 16.668,12.749 Z"/>
    </symbol>
    <symbol id="tel" viewBox="0 0 19 19">
        <path d="M18.549,8.999 C18.517,9.003 18.489,9.007 18.457,9.007 C18.195,9.007 17.966,8.822 17.922,8.558 C17.604,6.689 16.720,4.984 15.361,3.629 C14.001,2.278 12.293,1.392 10.419,1.075 C10.121,1.023 9.924,0.746 9.972,0.449 C10.025,0.157 10.302,-0.044 10.596,0.008 C12.695,0.365 14.605,1.351 16.125,2.867 C17.644,4.383 18.634,6.288 18.992,8.381 C19.044,8.674 18.843,8.955 18.549,8.999 ZM10.447,3.453 C11.722,3.669 12.884,4.271 13.804,5.189 C14.725,6.107 15.328,7.266 15.546,8.538 C15.594,8.834 15.397,9.115 15.099,9.163 C15.067,9.167 15.039,9.171 15.007,9.171 C14.745,9.171 14.516,8.987 14.472,8.722 C14.291,7.671 13.796,6.717 13.032,5.955 C12.268,5.193 11.311,4.696 10.258,4.520 C9.960,4.471 9.767,4.187 9.820,3.894 C9.872,3.601 10.149,3.405 10.447,3.453 ZM6.844,7.026 C6.546,7.326 6.241,7.639 5.911,7.940 C6.156,8.481 6.494,9.015 6.997,9.648 C8.034,10.920 9.116,11.902 10.306,12.656 C10.423,12.728 10.559,12.796 10.704,12.868 C10.805,12.921 10.909,12.973 11.014,13.029 L12.285,11.766 C12.691,11.360 13.165,11.148 13.660,11.148 C14.158,11.148 14.629,11.365 15.019,11.770 L17.226,13.979 C17.632,14.380 17.846,14.857 17.846,15.355 C17.846,15.848 17.636,16.329 17.238,16.742 C17.065,16.923 16.889,17.095 16.716,17.259 C16.462,17.504 16.221,17.733 16.012,17.985 C16.008,17.993 16.000,17.997 15.996,18.005 C15.385,18.667 14.605,19.000 13.676,19.000 C13.595,19.000 13.507,18.996 13.422,18.992 C12.043,18.904 10.809,18.386 9.884,17.949 C7.463,16.782 5.344,15.126 3.583,13.029 C2.131,11.288 1.158,9.664 0.507,7.912 C0.242,7.198 -0.104,6.107 -0.008,4.937 C0.057,4.211 0.350,3.585 0.865,3.072 L2.232,1.696 C2.236,1.692 2.236,1.692 2.240,1.689 C2.642,1.303 3.117,1.099 3.607,1.099 C4.098,1.099 4.564,1.303 4.954,1.689 C5.216,1.929 5.469,2.186 5.710,2.434 C5.831,2.563 5.959,2.691 6.084,2.815 L7.182,3.910 C8.026,4.752 8.026,5.843 7.182,6.685 C7.069,6.797 6.957,6.914 6.844,7.026 ZM6.418,4.676 L5.320,3.581 C5.191,3.449 5.063,3.321 4.938,3.192 C4.693,2.940 4.460,2.703 4.214,2.474 C4.210,2.470 4.206,2.466 4.202,2.462 C4.074,2.334 3.869,2.182 3.615,2.182 C3.410,2.182 3.201,2.282 3.004,2.466 L1.633,3.834 C1.299,4.167 1.118,4.556 1.078,5.025 C1.018,5.759 1.154,6.537 1.528,7.535 C2.135,9.171 3.052,10.695 4.423,12.343 C6.084,14.320 8.083,15.880 10.358,16.979 C11.191,17.376 12.301,17.841 13.495,17.917 C13.555,17.921 13.619,17.921 13.680,17.921 C14.307,17.921 14.786,17.716 15.192,17.284 C15.441,16.991 15.706,16.730 15.968,16.481 C16.141,16.313 16.302,16.161 16.458,15.992 C16.868,15.567 16.868,15.146 16.454,14.737 L14.239,12.528 C14.235,12.524 14.235,12.524 14.231,12.520 C14.106,12.383 13.901,12.227 13.652,12.227 C13.398,12.227 13.181,12.391 13.044,12.528 L11.669,13.899 C11.601,13.967 11.392,14.176 11.058,14.176 C10.925,14.176 10.797,14.144 10.660,14.075 C10.644,14.067 10.628,14.055 10.612,14.047 C10.495,13.975 10.358,13.907 10.214,13.835 C10.053,13.755 9.884,13.671 9.719,13.566 C8.428,12.752 7.258,11.689 6.148,10.326 L6.144,10.322 C5.533,9.548 5.131,8.898 4.846,8.209 C4.842,8.197 4.838,8.185 4.834,8.173 C4.761,7.944 4.697,7.607 5.043,7.262 C5.047,7.254 5.055,7.250 5.063,7.242 C5.413,6.930 5.734,6.609 6.072,6.264 C6.189,6.152 6.301,6.035 6.418,5.919 C6.844,5.494 6.844,5.101 6.418,4.676 Z"/>
    </symbol>
    <!-- social icons -->
    <symbol id="viber" viewBox="0 0 52.511 52.511">
        <path d="M31.256,0H21.254C10.778,0,2.255,8.521,2.255,18.995v9.01c0,7.8,4.793,14.81,12,17.665v5.841
    c0,0.396,0.233,0.754,0.595,0.914c0.13,0.058,0.268,0.086,0.405,0.086c0.243,0,0.484-0.089,0.671-0.259L21.725,47h9.531
    c10.476,0,18.999-8.521,18.999-18.995v-9.01C50.255,8.521,41.732,0,31.256,0z M48.255,28.005C48.255,37.376,40.63,45,31.256,45
    h-9.917c-0.248,0-0.487,0.092-0.671,0.259l-4.413,3.997v-4.279c0-0.424-0.267-0.802-0.667-0.942
    C8.81,41.638,4.255,35.196,4.255,28.005v-9.01C4.255,9.624,11.881,2,21.254,2h10.002c9.374,0,16.999,7.624,16.999,16.995V28.005z"
        />
        <path d="M39.471,30.493l-6.146-3.992c-0.672-0.437-1.472-0.585-2.255-0.423c-0.784,0.165-1.458,0.628-1.895,1.303l-0.289,0.444
    c-2.66-0.879-5.593-2.002-7.349-7.085l0.727-0.632h0c1.248-1.085,1.379-2.983,0.294-4.233l-4.808-5.531
    c-0.362-0.417-0.994-0.46-1.411-0.099l-3.019,2.624c-2.648,2.302-1.411,5.707-1.004,6.826c0.018,0.05,0.04,0.098,0.066,0.145
    c0.105,0.188,2.612,4.662,6.661,8.786c4.065,4.141,11.404,7.965,11.629,8.076c0.838,0.544,1.781,0.805,2.714,0.805
    c1.638,0,3.244-0.803,4.202-2.275l2.178-3.354C40.066,31.413,39.934,30.794,39.471,30.493z M35.91,34.142
    c-0.901,1.388-2.763,1.782-4.233,0.834c-0.073-0.038-7.364-3.835-11.207-7.75c-3.592-3.659-5.977-7.724-6.302-8.291
    c-0.792-2.221-0.652-3.586,0.464-4.556l2.265-1.968l4.152,4.776c0.369,0.424,0.326,1.044-0.096,1.411l-1.227,1.066
    c-0.299,0.26-0.417,0.671-0.3,1.049c2.092,6.798,6.16,8.133,9.13,9.108l0.433,0.143c0.433,0.146,0.907-0.021,1.155-0.403
    l0.709-1.092c0.146-0.226,0.37-0.379,0.63-0.434c0.261-0.056,0.527-0.004,0.753,0.143l5.308,3.447L35.91,34.142z"/>
        <path d="M28.538,16.247c-0.532-0.153-1.085,0.156-1.236,0.688c-0.151,0.531,0.157,1.084,0.688,1.235
    c1.49,0.424,2.677,1.613,3.097,3.104c0.124,0.44,0.525,0.729,0.962,0.729c0.09,0,0.181-0.012,0.272-0.037
    c0.531-0.15,0.841-0.702,0.691-1.234C32.405,18.578,30.69,16.859,28.538,16.247z"/>
        <path d="M36.148,22.219c0.09,0,0.181-0.012,0.272-0.037c0.532-0.15,0.841-0.703,0.691-1.234c-1.18-4.183-4.509-7.519-8.689-8.709
    c-0.531-0.153-1.084,0.158-1.235,0.689c-0.151,0.531,0.157,1.084,0.688,1.235c3.517,1,6.318,3.809,7.311,7.328
    C35.311,21.931,35.711,22.219,36.148,22.219z"/>
        <path d="M27.991,7.582c-0.532-0.153-1.085,0.156-1.236,0.689c-0.151,0.531,0.157,1.084,0.688,1.235
    c5.959,1.695,10.706,6.453,12.388,12.416c0.124,0.44,0.525,0.729,0.962,0.729c0.09,0,0.181-0.012,0.272-0.037
    c0.531-0.15,0.841-0.703,0.691-1.234C39.887,14.753,34.613,9.467,27.991,7.582z"/>
    </symbol>
    <symbol id="whatsapp" viewBox="0 0 512 512">
        <path d="m439.277344 72.722656c-46.898438-46.898437-109.238282-72.722656-175.566406-72.722656-.003907 0-.019532 0-.023438 0-32.804688.00390625-64.773438 6.355469-95.011719 18.882812-30.242187 12.527344-57.335937 30.640626-80.535156 53.839844-46.894531 46.894532-72.71875 109.246094-72.71875 175.566406 0 39.550782 9.542969 78.855469 27.625 113.875l-41.734375 119.226563c-2.941406 8.410156-.859375 17.550781 5.445312 23.851563 4.410157 4.414062 10.214844 6.757812 16.183594 6.757812 2.558594 0 5.144532-.429688 7.667969-1.3125l119.226563-41.730469c35.019531 18.082031 74.324218 27.625 113.875 27.625 66.320312 0 128.667968-25.828125 175.566406-72.722656 46.894531-46.894531 72.722656-109.246094 72.722656-175.566406 0-66.324219-25.824219-128.675781-72.722656-175.570313zm-21.234375 329.902344c-41.222657 41.226562-96.035157 63.925781-154.332031 63.925781-35.664063 0-71.09375-8.820312-102.460938-25.515625-5.6875-3.023437-12.410156-3.542968-18.445312-1.429687l-108.320313 37.910156 37.914063-108.320313c2.113281-6.042968 1.589843-12.765624-1.433594-18.449218-16.691406-31.359375-25.515625-66.789063-25.515625-102.457032 0-58.296874 22.703125-113.109374 63.925781-154.332031 41.21875-41.21875 96.023438-63.921875 154.316406-63.929687h.019532c58.300781 0 113.109374 22.703125 154.332031 63.929687 41.226562 41.222657 63.929687 96.03125 63.929687 154.332031 0 58.300782-22.703125 113.113282-63.929687 154.335938zm0 0"/>
        <path d="m355.984375 270.46875c-11.421875-11.421875-30.007813-11.421875-41.429687 0l-12.492188 12.492188c-31.019531-16.902344-56.121094-42.003907-73.027344-73.023438l12.492188-12.492188c11.425781-11.421874 11.425781-30.007812 0-41.429687l-33.664063-33.664063c-11.421875-11.421874-30.007812-11.421874-41.429687 0l-26.929688 26.929688c-15.425781 15.425781-16.195312 41.945312-2.167968 74.675781 12.179687 28.417969 34.46875 59.652344 62.761718 87.945313 28.292969 28.292968 59.527344 50.582031 87.945313 62.761718 15.550781 6.664063 29.695312 9.988282 41.917969 9.988282 13.503906 0 24.660156-4.058594 32.757812-12.15625l26.929688-26.933594v.003906c5.535156-5.535156 8.582031-12.890625 8.582031-20.714844 0-7.828124-3.046875-15.183593-8.582031-20.714843zm-14.5 80.792969c-4.402344 4.402343-17.941406 5.945312-41.609375-4.195313-24.992188-10.710937-52.886719-30.742187-78.542969-56.398437s-45.683593-53.546875-56.394531-78.539063c-10.144531-23.667968-8.601562-37.210937-4.199219-41.613281l26.414063-26.414063 32.625 32.628907-15.636719 15.640625c-7.070313 7.070312-8.777344 17.792968-4.242187 26.683594 20.558593 40.3125 52.734374 72.488281 93.046874 93.046874 8.894532 4.535157 19.617188 2.832032 26.6875-4.242187l15.636719-15.636719 32.628907 32.628906zm0 0"/>
    </symbol>
    <symbol id="telegram" viewBox="0 0 26.649 26.649">
        <path d="M26.157,1.238c-0.434-0.567-1.107-0.892-1.847-0.892c-0.478,0-0.973,0.133-1.472,0.395L1.593,11.88
		c-1.51,0.793-1.615,1.987-1.59,2.463c0.024,0.479,0.255,1.654,1.839,2.283L4.557,17.7c0.515,0.204,1.091,0.309,1.711,0.309
		c0.098,0,0.192-0.013,0.289-0.018c-0.037,0.048-0.082,0.085-0.116,0.135c-0.506,0.757-0.531,1.783-0.073,2.888
		c0.007,0.019,0.014,0.035,0.021,0.051c0.803,1.779,1.696,3.787,1.804,4.066c0.266,0.694,0.944,1.172,1.688,1.172
		c1.146,0,1.486-0.552,3.361-3.604c0.146-0.224,0.471-0.744,0.526-1.406c0.219,0.089,0.425,0.171,0.601,0.242l3.008,1.226
		c0.603,0.246,1.131,0.463,1.409,0.578c0.086,0.053,0.177,0.098,0.272,0.137c0.212,0.084,0.438,0.127,0.665,0.127
		c1.368,0,1.696-1.185,1.872-1.82c0.087-0.314,0.207-0.749,0.336-1.229l4.588-16.858C26.865,2.423,26.44,1.61,26.157,1.238z
		 M11.727,21.739c0,0-1.702,2.771-1.847,2.771c-0.004,0-0.006-0.002-0.008-0.006c-0.167-0.449-1.849-4.176-1.849-4.176
		c-0.31-0.747-0.254-1.387,0.279-1.387c0.117,0,0.257,0.031,0.421,0.099l1.306,0.679c0.218,0.149,0.456,0.278,0.718,0.381
		l0.066,0.025l0.123,0.062C11.945,20.721,12.266,20.914,11.727,21.739z M24.789,3.224l-4.586,16.858
		c-0.259,0.95-0.475,1.727-0.479,1.727c-0.004-0.002-0.009-0.02-0.009-0.023c0-0.006-0.748-0.312-1.662-0.686l-3.01-1.226
		c-0.914-0.37-2.413-0.969-3.332-1.323l-0.152-0.061l-0.562-0.292c-0.557-0.427-0.606-1.131-0.046-1.728l9.312-9.971
		c0.374-0.399,0.515-0.605,0.434-0.605c-0.064,0-0.271,0.133-0.617,0.404L8.298,15.592c-0.514,0.401-1.295,0.625-2.029,0.625
		c-0.376,0-0.741-0.06-1.052-0.183l-2.713-1.073c-0.917-0.363-0.952-1.033-0.079-1.493L23.672,2.327
		c0.245-0.128,0.46-0.188,0.638-0.188C24.767,2.139,24.975,2.539,24.789,3.224z"/>
    </symbol>
    <!-- transfer -->
    <symbol id="clock" viewBox="0 0 203.543 203.543">
        <path d="m194.139,11.918h-39.315v-5.918c0-3.313-2.687-6-6-6s-6,2.687-6,6v5.918h-35.053v-5.918c0-3.313-2.687-6-6-6s-6,2.687-6,6v5.918h-33.563v-5.918c0-3.313-2.687-6-6-6s-6,2.687-6,6v5.918h-40.804c-3.313,0-6,2.687-6,6v135.572c0,3.313 2.687,6 6,6h36.826c5.901,25.214 28.555,44.053 55.541,44.053s49.64-18.84 55.541-44.053h36.826c3.313,0 6-2.687 6-6v-135.572c0.001-3.313-2.685-6-5.999-6zm-143.931,12v5.422c0,3.313 2.687,6 6,6s6-2.687 6-6v-5.422h33.563v5.422c0,3.313 2.687,6 6,6s6-2.687 6-6v-5.422h35.053v5.422c0,3.313 2.687,6 6,6s6-2.687 6-6v-5.422h33.315v24.536h-172.735v-24.536h34.804zm51.563,167.625c-24.842,0-45.053-20.211-45.053-45.053s20.211-45.053 45.053-45.053 45.053,20.21 45.053,45.053-20.21,45.053-45.053,45.053zm57.028-44.053c0.006-0.334 0.025-0.665 0.025-1 0-31.459-25.594-57.053-57.053-57.053s-57.053,25.594-57.053,57.053c0,0.335 0.02,0.666 0.025,1h-29.34v-87.035h172.735v87.035h-29.339z"/>
        <path d="m107.771,148.004v-29.026c0-3.313-2.687-6-6-6s-6,2.687-6,6v31.512c0,1.591 0.632,3.117 1.757,4.243l13.79,13.791c1.172,1.171 2.707,1.757 4.243,1.757 1.535,0 3.071-0.586 4.243-1.757 2.343-2.343 2.343-6.142 0-8.485l-12.033-12.035z"/>
    </symbol>
</svg>