<?xml version="1.0" encoding="UTF-8"?>
<!DOCTYPE svg PUBLIC "-//W3C//DTD SVG 1.1//EN" "http://www.w3.org/Graphics/SVG/1.1/DTD/svg11.dtd">
<!-- Creator: CorelDRAW X8 -->
<svg xmlns="http://www.w3.org/2000/svg" xml:space="preserve" width="46.8637mm" height="46.8618mm" version="1.1" style="shape-rendering:geometricPrecision; text-rendering:geometricPrecision; image-rendering:optimizeQuality; fill-rule:evenodd; clip-rule:evenodd"
viewBox="0 0 66 66"
 xmlns:xlink="http://www.w3.org/1999/xlink">
 <defs>
  <style type="text/css">
   <![CDATA[
    .fil0 {fill:#57E4D5}
   ]]>
  </style>
 </defs>
 <g id="Слой_x0020_1">
  <metadata id="CorelCorpID_0Corel-Layer"/>
  <path class="fil0" d="M59 66c-2,0 -4,-1 -5,-2l-21 -21 -21 21c-1,1 -3,2 -5,2 -2,0 -4,-1 -5,-2 -3,-3 -3,-7 0,-10l21 -21 -21 -21c-3,-3 -3,-7 0,-10 1,-1 3,-2 5,-2 2,0 4,1 5,2l21 21 21 -21c1,-1 3,-2 5,-2 2,0 4,1 5,2 3,3 3,7 0,10l-21 21 21 21c3,3 3,7 0,10 -1,1 -3,2 -5,2z"/>
 </g>
</svg>
