<?xml version="1.0" encoding="UTF-8"?>
<!DOCTYPE svg PUBLIC "-//W3C//DTD SVG 1.1//EN" "http://www.w3.org/Graphics/SVG/1.1/DTD/svg11.dtd">
<!-- Creator: CorelDRAW X8 -->
<svg xmlns="http://www.w3.org/2000/svg" xml:space="preserve" width="143.387mm" height="143.387mm" version="1.1" style="shape-rendering:geometricPrecision; text-rendering:geometricPrecision; image-rendering:optimizeQuality; fill-rule:evenodd; clip-rule:evenodd"
viewBox="0 0 1656 1656"
 xmlns:xlink="http://www.w3.org/1999/xlink">
 <defs>
  <style type="text/css">
   <![CDATA[
    .fil0 {fill:#57E4D5}
   ]]>
  </style>
 </defs>
 <g id="Слой_x0020_1">
  <metadata id="CorelCorpID_0Corel-Layer"/>
  <g id="_1123300351424">
   <g>
    <path class="fil0" d="M1162 0l-669 0c-272,0 -493,221 -493,493l0 669c0,272 221,494 493,494l669 0c272,0 494,-222 494,-494l0 -669c0,-272 -222,-493 -494,-493zm327 1162c0,181 -146,327 -327,327l-669 0c-180,0 -326,-146 -326,-327l0 -669c0,-180 146,-326 326,-326l669 0c181,0 327,146 327,326l0 669 0 0z"/>
    <path class="fil0" d="M828 400c-236,0 -428,192 -428,428 0,236 192,428 428,428 236,0 428,-192 428,-428 0,-236 -192,-428 -428,-428zm0 690c-145,0 -262,-118 -262,-262 0,-145 117,-262 262,-262 144,0 262,117 262,262 0,144 -118,262 -262,262z"/>
    <circle class="fil0" cx="1257" cy="403" r="103"/>
   </g>
   <g>
   </g>
   <g>
   </g>
   <g>
   </g>
   <g>
   </g>
   <g>
   </g>
   <g>
   </g>
   <g>
   </g>
   <g>
   </g>
   <g>
   </g>
   <g>
   </g>
   <g>
   </g>
   <g>
   </g>
   <g>
   </g>
   <g>
   </g>
   <g>
   </g>
  </g>
 </g>
</svg>
