<?xml version="1.0" encoding="UTF-8"?>
<!DOCTYPE svg PUBLIC "-//W3C//DTD SVG 1.1//EN" "http://www.w3.org/Graphics/SVG/1.1/DTD/svg11.dtd">
<!-- Creator: CorelDRAW X8 -->
<svg xmlns="http://www.w3.org/2000/svg" xml:space="preserve" width="159.554mm" height="159.555mm" version="1.1" style="shape-rendering:geometricPrecision; text-rendering:geometricPrecision; image-rendering:optimizeQuality; fill-rule:evenodd; clip-rule:evenodd"
viewBox="0 0 682 682"
 xmlns:xlink="http://www.w3.org/1999/xlink">
 <defs>
  <style type="text/css">
   <![CDATA[
    .fil0 {fill:#57E4D5}
   ]]>
  </style>
 </defs>
 <g id="Слой_x0020_1">
  <metadata id="CorelCorpID_0Corel-Layer"/>
  <g id="_1123236662352">
   <polygon class="fil0" points="665,447 665,447 665,447 664,450 664,450 664,450 663,452 663,452 663,452 663,454 662,454 662,455 662,457 661,457 661,458 661,460 660,460 660,460 660,462 659,462 659,463 659,465 658,465 658,465 658,465 465,658 464,659 463,659 463,659 462,660 461,660 461,660 459,661 459,661 459,661 458,661 457,662 456,662 456,662 454,663 453,663 453,663 451,664 451,664 451,664 451,664 450,664 448,665 448,665 448,665 445,666 445,666 445,666 445,666 666,445 "/>
   <path class="fil0" d="M334 682l0 0 -2 0 329 -329c3,1 6,2 10,3l-326 326c-1,0 -3,0 -4,0l0 0c-2,0 -5,0 -7,0z"/>
   <path class="fil0" d="M671 356c-4,-1 -7,-2 -10,-3l21 -21c0,3 0,6 0,9 0,1 0,3 0,4l-11 11 0 0z"/>
   <path class="fil0" d="M257 671l0 0 -1 0 -1 0 -1 0 0 -1 -2 0 -2 0 0 -1 -1 0 -1 0 0 0 341 -341c3,1 6,3 10,4l-340 340 -2 -1z"/>
   <path class="fil0" d="M670 251l0 0 0 0 1 3 0 1 0 0 1 3 0 1 -73 73 0 0c-4,-1 -7,-3 -10,-4l80 -80 1 3z"/>
   <path class="fil0" d="M186 645l-1 -1c-2,-1 -4,-2 -6,-3l341 -341c3,2 6,3 9,4l-341 342 -2 -1z"/>
   <path class="fil0" d="M642 182l0 0 0 0 1 1 0 1 0 0 1 1 0 0 0 0 1 2 0 0 0 0 1 1 -117 116 0 0c-3,-1 -6,-2 -9,-4l121 -121 1 3z"/>
   <path class="fil0" d="M126 605l0 0 -1 0 -1 -1 0 0c-1,-1 -2,-1 -2,-2l331 -332c4,2 7,3 10,4l-334 334c-1,-1 -2,-2 -3,-3z"/>
   <path class="fil0" d="M463 274c-3,-1 -6,-2 -10,-4l149 -148c2,2 4,4 6,7l-145 145 0 0z"/>
   <path class="fil0" d="M77 556l0 0 -1 0c0,-1 -1,-2 -2,-3l315 -316c3,2 6,3 9,5l-318 318c-1,0 -1,-1 -2,-2l0 -1 -1 -1z"/>
   <path class="fil0" d="M398 242c-3,-2 -6,-3 -9,-5l164 -163c1,1 3,2 5,4l0 0c1,1 2,1 2,2l-162 162 0 0z"/>
   <path class="fil0" d="M38 497l0 0 0 0 -1 -2 0 0 0 0 -1 -1 292 -292c3,2 5,4 8,5l-295 296c-1,-2 -2,-4 -3,-6z"/>
   <path class="fil0" d="M494 36l0 0 0 0 2 1 0 0 0 0 0 0 0 0c2,1 5,3 7,4l-167 166 0 0c-3,-1 -5,-3 -8,-5l166 -166 0 0z"/>
   <path class="fil0" d="M12 432l0 0 0 0 -1 -3 0 -1 0 0 0 -2 0 0 0 -1 0 -1 -1 0 0 -1 258 -258c3,2 6,4 8,5l-263 264 -1 -2z"/>
   <path class="fil0" d="M426 11l0 0 1 0 2 1 0 0 2 0 2 1 0 0 1 0 -158 157 0 0c-2,-1 -5,-3 -8,-5l155 -155 3 1z"/>
   <path class="fil0" d="M0 350l0 -6 0 0 0 -3c0,-1 0,-2 0,-4l0 0 0 0 211 -211c3,1 5,3 8,5l-219 219z"/>
   <path class="fil0" d="M219 131c-3,-2 -5,-4 -8,-5l126 -126c1,0 2,0 4,0 3,0 6,0 9,0l-131 131 0 0z"/>
   <path class="fil0" d="M17 234l0 0 0 0 1 -2 0 0 0 0 0 -1 1 -2 0 0 0 -1 1 -2 0 0 0 0 1 -2 0 0 0 -1 1 -2 0 0 0 0 1 -3 0 0 0 0 0 -1 0 0 1 0 0 -1 132 -132c3,2 5,4 8,6l-148 147 1 -3z"/>
   <path class="fil0" d="M217 23l0 0 0 0 2 -1 1 0 0 0 2 -1 1 0 0 0 2 -1 1 0 0 0 1 -1 0 0 0 0 3 0 0 0 0 -1 3 0 0 0 0 -1 3 0 0 0 0 -1 1 0 -73 74 0 0c-3,-2 -5,-4 -8,-6l61 -61 0 0z"/>
  </g>
 </g>
</svg>
