<?xml version="1.0" encoding="UTF-8"?>
<!DOCTYPE svg PUBLIC "-//W3C//DTD SVG 1.1//EN" "http://www.w3.org/Graphics/SVG/1.1/DTD/svg11.dtd">
<!-- Creator: CorelDRAW X8 -->
<svg xmlns="http://www.w3.org/2000/svg" xml:space="preserve" width="121.431mm" height="165.07mm" version="1.1" style="shape-rendering:geometricPrecision; text-rendering:geometricPrecision; image-rendering:optimizeQuality; fill-rule:evenodd; clip-rule:evenodd"
viewBox="0 0 712 968"
 xmlns:xlink="http://www.w3.org/1999/xlink">
 <defs>
  <style type="text/css">
   <![CDATA[
    .str0 {stroke:#57E4D5;stroke-width:69.2768;stroke-linecap:round;stroke-linejoin:round}
    .fil0 {fill:none;fill-rule:nonzero}
   ]]>
  </style>
 </defs>
 <g id="Слой_x0020_1">
  <metadata id="CorelCorpID_0Corel-Layer"/>
  <path class="fil0 str0" d="M346 583l-63 -127c-20,-40 -13,-87 12,-121 18,3 36,1 54,-8 17,-8 30,-21 38,-37 14,-25 15,-55 2,-82l-61 -124c-22,-44 -76,-62 -120,-40l-28 14c-129,64 -182,221 -119,349l189 382c64,128 221,182 349,118l29 -14c44,-22 62,-76 41,-120l-61 -123c-14,-27 -39,-44 -67,-49 -18,-2 -36,0 -53,8 -17,9 -30,22 -39,38 -42,0 -83,-24 -103,-64z"/>
 </g>
</svg>
