<?xml version="1.0" encoding="UTF-8"?>
<!DOCTYPE svg PUBLIC "-//W3C//DTD SVG 1.1//EN" "http://www.w3.org/Graphics/SVG/1.1/DTD/svg11.dtd">
<!-- Creator: CorelDRAW X8 -->
<svg xmlns="http://www.w3.org/2000/svg" xml:space="preserve" width="251.151mm" height="188.055mm" version="1.1" style="shape-rendering:geometricPrecision; text-rendering:geometricPrecision; image-rendering:optimizeQuality; fill-rule:evenodd; clip-rule:evenodd"
viewBox="0 0 2235 1673"
 xmlns:xlink="http://www.w3.org/1999/xlink">
 <defs>
  <style type="text/css">
   <![CDATA[
    .str0 {stroke:#57E4D5;stroke-width:110.255;stroke-linecap:round;stroke-linejoin:round}
    .fil0 {fill:none;fill-rule:nonzero}
   ]]>
  </style>
 </defs>
 <g id="Слой_x0020_1">
  <metadata id="CorelCorpID_0Corel-Layer"/>
  <g id="_1123148858864">
   <polygon class="fil0 str0" points="1367,865 1152,896 390,1005 527,689 55,484 193,166 665,372 802,55 1265,719 "/>
   <path class="fil0 str0" d="M1804 1087c0,86 -69,156 -156,156 -86,0 -156,-70 -156,-156 0,-87 70,-156 156,-156 87,0 156,69 156,156z"/>
   <path class="fil0 str0" d="M2180 1087c0,294 -238,531 -532,531 -293,0 -531,-237 -531,-531 0,-67 13,-132 35,-191l215 -31 -102 -146c96,-102 233,-164 383,-164 294,0 532,238 532,532z"/>
  </g>
 </g>
</svg>
