<?xml version="1.0" encoding="UTF-8"?>
<!DOCTYPE svg PUBLIC "-//W3C//DTD SVG 1.1//EN" "http://www.w3.org/Graphics/SVG/1.1/DTD/svg11.dtd">
<!-- Creator: CorelDRAW X7 -->
<svg xmlns="http://www.w3.org/2000/svg" xml:space="preserve" width="140mm" height="140mm" version="1.1" style="shape-rendering:geometricPrecision; text-rendering:geometricPrecision; image-rendering:optimizeQuality; fill-rule:evenodd; clip-rule:evenodd"
viewBox="0 0 14000 14000"
 xmlns:xlink="http://www.w3.org/1999/xlink">
 <defs>
  <style type="text/css">
   <![CDATA[
    .str0 {stroke:white;stroke-width:99.21}
    .fil0 {fill:white;fill-rule:nonzero}
   ]]>
  </style>
 </defs>
 <g id="Слой_x0020_1">
  <metadata id="CorelCorpID_0Corel-Layer"/>
  <g id="_983965648">
   <g id="surface1">
    <path class="fil0 str0" d="M4588 2736l4825 0c91,0 165,-74 165,-165 0,-91 -74,-165 -165,-165l-4825 0c-91,0 -166,74 -166,165 0,91 75,165 166,165zm0 0z"/>
    <path class="fil0 str0" d="M2687 1932l0 9936c1,286 233,518 519,519l7588 0c287,-1 518,-233 519,-519l0 -9936c-1,-287 -232,-519 -519,-519l-2520 0c-83,-704 -720,-1207 -1424,-1124 -590,70 -1054,535 -1124,1124l-2520 0c-286,0 -518,232 -519,519zm8294 9936c0,104 -84,187 -187,187l-7588 0c-104,0 -188,-83 -188,-187l0 -8335 7964 0 -1 8335zm-3981 -11260c469,1 867,342 940,805l-1875 0c72,-461 468,-802 935,-805zm3794 1135c104,0 188,85 188,189l0 1270 -7964 0 0 -1270c0,-104 84,-189 188,-189l7588 0zm0 0z"/>
    <path class="fil0 str0" d="M6029 5356l3912 0c91,0 165,-74 165,-165 0,-92 -74,-166 -165,-166l-3912 0c-91,0 -165,74 -165,166 0,91 74,165 165,165zm0 0z"/>
    <path class="fil0 str0" d="M6029 7082l3912 0c91,0 165,-74 165,-165 0,-91 -74,-166 -165,-166l-3912 0c-91,0 -165,75 -165,166 0,91 74,165 165,165zm0 0z"/>
    <path class="fil0 str0" d="M6029 8808l3912 0c91,0 165,-75 165,-166 0,-91 -74,-166 -165,-166l-3912 0c-91,0 -165,75 -165,166 0,91 74,166 165,166zm0 0z"/>
    <path class="fil0 str0" d="M6029 10532l3912 0c91,0 165,-73 165,-165 0,-91 -74,-165 -165,-165l-3912 0c-91,0 -165,74 -165,165 0,92 74,165 165,165zm0 0z"/>
    <path class="fil0 str0" d="M4380 5449c25,37 65,61 110,68l24 0c37,0 72,-12 102,-35l1054 -824c79,-46 106,-147 60,-226 -46,-79 -147,-106 -226,-60 -13,7 -26,17 -37,29l-917 717 -160 -228c-52,-75 -155,-94 -230,-41 -75,52 -94,156 -41,230l261 370zm0 0z"/>
    <path class="fil0 str0" d="M4380 7149c25,37 65,62 110,69l24 0c37,0 72,-13 102,-35l1054 -824c74,-54 89,-158 35,-232 -54,-73 -158,-89 -231,-34 -3,1 -6,3 -8,6l-916 718 -160 -229c-41,-81 -140,-115 -221,-74 -82,41 -115,140 -75,222 7,13 15,25 25,36l261 377zm0 0z"/>
    <path class="fil0 str0" d="M4380 8855c25,37 65,61 110,68l24 0c37,0 72,-12 102,-35l1054 -824c74,-54 89,-158 35,-231 -54,-74 -158,-89 -231,-35 -3,2 -6,3 -8,6l-917 715 -159 -228c-53,-75 -156,-93 -231,-41 -75,53 -93,156 -41,231l262 374zm0 0z"/>
    <path class="fil0 str0" d="M4380 10580c25,37 65,62 110,69l24 0c37,-1 72,-14 102,-36l1054 -824c77,-48 100,-151 52,-228 -49,-78 -151,-100 -229,-52 -9,6 -18,13 -26,21l-917 717 -160 -228c-52,-75 -155,-93 -230,-41 -75,52 -94,155 -41,230l261 372zm0 0z"/>
   </g>
  </g>
 </g>
</svg>
