<?xml version="1.0" encoding="UTF-8"?>
<!DOCTYPE svg PUBLIC "-//W3C//DTD SVG 1.1//EN" "http://www.w3.org/Graphics/SVG/1.1/DTD/svg11.dtd">
<!-- Creator: CorelDRAW X7 -->
<svg xmlns="http://www.w3.org/2000/svg" xml:space="preserve" width="140mm" height="140mm" version="1.1" style="shape-rendering:geometricPrecision; text-rendering:geometricPrecision; image-rendering:optimizeQuality; fill-rule:evenodd; clip-rule:evenodd"
viewBox="0 0 14000 14000"
 xmlns:xlink="http://www.w3.org/1999/xlink">
 <defs>
  <style type="text/css">
   <![CDATA[
    .fil0 {fill:white}
   ]]>
  </style>
 </defs>
 <g id="Слой_x0020_1">
  <metadata id="CorelCorpID_0Corel-Layer"/>
  <g id="_1015006544">
   <path class="fil0" d="M13770 4781c2,-10 3,-19 3,-28 1,-11 0,-22 -1,-33 0,-9 -2,-19 -4,-28 -3,-11 -6,-21 -10,-31 -2,-6 -3,-11 -5,-17 -2,-3 -5,-6 -7,-10 -2,-4 -3,-8 -5,-12l-2258 -3613c-11,-17 -23,-32 -37,-45 0,0 0,0 -1,0 -19,-19 -42,-32 -67,-42 -3,-1 -5,-4 -8,-5 -3,-1 -5,-1 -8,-2 -23,-7 -46,-12 -71,-12l-8581 0c-25,0 -48,5 -70,12 -3,1 -5,0 -8,1 -3,1 -5,4 -8,6 -24,9 -46,22 -65,39 -1,1 -3,2 -4,3 -14,13 -26,28 -37,44l-2258 3614c-2,3 -3,8 -5,12 -2,3 -5,6 -7,10 -3,5 -3,11 -5,16 -4,11 -8,21 -10,32 -2,9 -4,19 -5,28 -1,11 -2,22 -1,33 0,9 1,18 3,28 2,10 5,21 8,32 3,8 6,17 10,26 2,4 3,8 5,12 4,7 9,12 13,18 4,5 5,10 9,14l6547 8127c0,1 1,1 1,2l1 1c1,1 2,1 3,2 18,23 41,40 66,53 7,4 14,7 21,10 27,11 56,19 86,19 26,0 52,-4 77,-13 4,-2 7,-5 11,-6 11,-5 20,-13 31,-19 17,-11 33,-23 46,-37 3,-4 8,-5 11,-9l6549 -8130c4,-4 5,-10 9,-14 4,-6 9,-11 13,-18 2,-4 3,-8 5,-12 4,-9 7,-17 10,-26 3,-11 6,-21 8,-32zm-6295 -3427l3491 0 -1098 2946 -2393 -2946zm1986 3162l-4922 0 2461 -3029 2461 3029zm-5345 -196l-1084 -2966 3494 0 -2410 2966zm5504 648l-2660 7137 -2608 -7137 5268 0zm1722 -3331l1799 2879 -2871 0 1072 -2879zm-8686 3l1050 2876 -2847 0 1797 -2876zm1216 3328l2447 6699 -5396 -6699 2949 0zm3669 6872l2561 -6872 2975 0 -5536 6872z"/>
   <g>
   </g>
   <g>
   </g>
   <g>
   </g>
   <g>
   </g>
   <g>
   </g>
   <g>
   </g>
   <g>
   </g>
   <g>
   </g>
   <g>
   </g>
   <g>
   </g>
   <g>
   </g>
   <g>
   </g>
   <g>
   </g>
   <g>
   </g>
   <g>
   </g>
  </g>
 </g>
</svg>
