<svg xmlns="http://www.w3.org/2000/svg" width="21" height="20" viewBox="0 0 21 20">
  <metadata><?xpacket begin="﻿" id="W5M0MpCehiHzreSzNTczkc9d"?>
<x:xmpmeta xmlns:x="adobe:ns:meta/" x:xmptk="Adobe XMP Core 5.6-c140 79.160451, 2017/05/06-01:08:21        ">
   <rdf:RDF xmlns:rdf="http://www.w3.org/1999/02/22-rdf-syntax-ns#">
      <rdf:Description rdf:about=""/>
   </rdf:RDF>
</x:xmpmeta>
                                                                                                    
                                                                                                    
                                                                                                    
                                                                                                    
                                                                                                    
                                                                                                    
                                                                                                    
                                                                                                    
                                                                                                    
                                                                                                    
                                                                                                    
                                                                                                    
                                                                                                    
                                                                                                    
                                                                                                    
                                                                                                    
                                                                                                    
                                                                                                    
                                                                                                    
                                                                                                    
                           
<?xpacket end="w"?></metadata>
<defs>
    <style>
      .cls-1 {
        fill: #1bbcef;
        fill-rule: evenodd;
      }
    </style>
  </defs>
  <path class="cls-1" d="M1526.23,10797.1c-1.08-.5-7.36-2.7-8.73-3.1-1.37.4-7.65,2.6-8.73,3.1a2.7,2.7,0,0,0-1.77,2.7v8.4a2.7,2.7,0,0,0,1.77,2.7c1.08,0.5,7.36,2.7,8.73,3.1,1.37-.4,7.65-2.6,8.73-3.1a2.7,2.7,0,0,0,1.77-2.7v-8.4A2.7,2.7,0,0,0,1526.23,10797.1Zm-3.71,10.3a1.388,1.388,0,0,1-1.45,1.5h-0.01a1.437,1.437,0,0,1-1.43-1.3v-3.9l-2.13,2.9-2.13-2.9v3.7a1.419,1.419,0,0,1-1.29,1.5h-0.13a1.39,1.39,0,0,1-1.46-1.5v-6.8a1.443,1.443,0,0,1,1.42-1.5h0.1a1.977,1.977,0,0,1,1.44.7l2.04,2.6,1.52-1.9,0.55-.7a1.917,1.917,0,0,1,1.42-.7h0.01a1.474,1.474,0,0,1,1.53,1.4v6.9h0Z" transform="translate(-1507 -10794)"/>
</svg>
