<?xml version="1.0" encoding="utf-8"?>
<!-- Generator: Adobe Illustrator 21.1.0, SVG Export Plug-In . SVG Version: 6.00 Build 0)  -->
<svg version="1.1" id="Layer_1" xmlns="http://www.w3.org/2000/svg" xmlns:xlink="http://www.w3.org/1999/xlink" x="0px" y="0px"
	 viewBox="0 0 178.6 113.7" style="enable-background:new 0 0 178.6 113.7;" xml:space="preserve">
<style type="text/css">
	.st0{fill-rule:evenodd;clip-rule:evenodd;fill:#FFFFFF;stroke:#FFFFFF;stroke-miterlimit:10;}
	.st1{fill-rule:evenodd;clip-rule:evenodd;fill:#E3000F;stroke:#FFFFFF;stroke-miterlimit:10;}
	.st2{fill-rule:evenodd;clip-rule:evenodd;fill:#009EE3;stroke:#FFFFFF;stroke-miterlimit:10;}
	.st3{fill-rule:evenodd;clip-rule:evenodd;fill:#FFFFFF;}
</style>
<g>
	<path class="st0" d="M147.5,45.4c12.3,0,12.3,0,12.3,0l0,0c0.3,0,0.5-0.1,0.7-0.4c2.1-3.8,3.4-7.9,4.1-12.2c0.1-0.1,0-0.4-0.1-0.7
		c-0.1-0.1-0.4-0.3-0.5-0.3l0,0c-14.1,0-14.1,0-14.1,0l0,0c-0.4,0-0.8,0.3-0.8,0.7l0,0c-2.3,11.9-2.3,11.9-2.3,11.9l0,0
		c0,0.3,0,0.4,0.1,0.7C146.9,45.2,147.2,45.4,147.5,45.4L147.5,45.4L147.5,45.4L147.5,45.4z M138.4,14.2c-0.1,0.3-0.1,0.5,0,0.8
		c0.1,0.3,0.4,0.4,0.7,0.4l0,0c10.1,0,10.1,0,10.1,0l0,0c0.4,0,0.7-0.3,0.7-0.7l0,0c2.6-12.3,2.6-12.3,2.6-12.3l0,0
		c0-0.3,0-0.5-0.1-0.7c-0.1-0.1-0.4-0.3-0.7-0.3c-0.1,0-0.3,0-0.3,0c-0.3-0.1-0.5,0-0.7,0.1C145.7,4.8,141.6,9,138.4,14.2
		L138.4,14.2L138.4,14.2L138.4,14.2z M153.3,15.4L153.3,15.4L153.3,15.4c-0.3,0-0.4-0.1-0.5-0.3c-0.1-0.3-0.3-0.4-0.3-0.7l0,0
		c0,0,0,0,2.3-11.6l0,0c0.1-0.4,0.5-0.7,1-0.5l0,0c0,0,0,0,1.2,0.3l0,0c0.1,0.1,0.4,0.3,0.4,0.4c2.5,3.6,4.2,7.4,5.6,11.3
		c0.1,0.3,0,0.5-0.1,0.7c-0.1,0.3-0.4,0.4-0.5,0.4l0,0C162.4,15.4,162.4,15.4,153.3,15.4L153.3,15.4z M165.8,14.9
		c0.1,0.3,0.4,0.5,0.8,0.5l0,0c6,0,6,0,6,0l0,0c0.3,0,0.5-0.1,0.7-0.4c0.1-0.3,0.1-0.7-0.1-0.8c-2.6-3.8-6.1-6.8-10.1-9
		c-0.3-0.3-0.7-0.1-0.8,0.1c-0.3,0.3-0.4,0.5-0.1,0.8C163.6,9.2,164.8,12,165.8,14.9L165.8,14.9L165.8,14.9L165.8,14.9z M166.9,17.2
		c-0.1,0.1-0.3,0.4-0.1,0.7c1.1,4,1.6,7.9,1.5,11.8c0,0.4,0.3,0.8,0.7,0.8l0,0c9,0,9,0,9,0l0,0c0.4,0,0.7-0.4,0.7-0.8
		c-0.1-4.4-1.4-8.6-3.4-12.3c-0.1-0.3-0.4-0.4-0.7-0.4l0,0c-7.1,0-7.1,0-7.1,0l0,0C167.3,16.9,167,17.1,166.9,17.2L166.9,17.2
		L166.9,17.2L166.9,17.2z M165,29.8c0.3-4,0-8.1-1.1-12.3c0-0.3-0.3-0.5-0.7-0.5l0,0c-10.5,0-10.5,0-10.5,0l0,0
		c-0.3,0-0.7,0.3-0.7,0.7l0,0c-2.3,11.9-2.3,11.9-2.3,11.9l0,0c-0.1,0.3,0,0.5,0.1,0.7c0.1,0.1,0.4,0.3,0.5,0.3l0,0
		c13.8,0,13.8,0,13.8,0l0,0C164.6,30.5,165,30.2,165,29.8L165,29.8L165,29.8L165,29.8z M146.9,29.8c2.5-11.9,2.5-11.9,2.5-11.9l0,0
		c0-0.3,0-0.5-0.1-0.7c-0.3-0.1-0.4-0.3-0.7-0.3l0,0c-11.2,0-11.2,0-11.2,0l0,0c-0.3,0-0.5,0.1-0.7,0.4c-1.9,3.8-3.3,7.9-4,12.2
		c0,0.3,0,0.5,0.1,0.7c0.1,0.1,0.4,0.3,0.7,0.3l0,0c12.6,0,12.6,0,12.6,0l0,0C146.5,30.5,146.8,30.2,146.9,29.8L146.9,29.8
		L146.9,29.8L146.9,29.8z M177.9,31.8L177.9,31.8L177.9,31.8c0.4,0,0.7,0.4,0.7,1c-0.1,4.2-1.4,8.3-3.4,12.2
		c-0.1,0.3-0.4,0.4-0.7,0.4l0,0c0,0,0,0-9.4,0l0,0c-0.3,0-0.4-0.1-0.5-0.4c-0.1-0.3-0.3-0.5-0.1-0.8c1.9-3.6,3.1-7.5,3.6-11.5
		c0-0.4,0.4-0.8,0.8-0.8l0,0C168.8,31.8,168.8,31.8,177.9,31.8L177.9,31.8z M145.6,31.8c-12.4,0-12.4,0-12.4,0l0,0
		c-0.4,0-0.8,0.4-0.8,0.8c-0.4,4-0.3,8.1,0.4,12c0,0.4,0.4,0.7,0.8,0.7l0,0c9.6,0,9.6,0,9.6,0l0,0c0.4,0,0.7-0.3,0.8-0.7l0,0
		c2.3-11.9,2.3-11.9,2.3-11.9l0,0c0.1-0.1,0-0.4-0.1-0.7C146,32,145.7,31.8,145.6,31.8L145.6,31.8L145.6,31.8L145.6,31.8z
		 M172.7,46.9c-9.3,0-9.3,0-9.3,0l0,0c-0.3,0-0.5,0.1-0.7,0.3c-3.1,4.8-7.4,8.9-12.7,12.4c-0.3,0.1-0.4,0.5-0.3,0.8
		c0.1,0.4,0.4,0.5,0.8,0.5c9.2-0.7,17.4-5.3,22.7-12.8c0.3-0.3,0.3-0.5,0.1-0.8C173.3,47,173,46.9,172.7,46.9L172.7,46.9L172.7,46.9
		L172.7,46.9z M158.5,48.1L158.5,48.1L158.5,48.1c-3.1,4.8-7.4,9.2-12.4,12.7c-0.1,0.1-0.3,0.3-0.5,0.3l0,0c0,0,0,0-1.4-0.3l0,0
		c-0.4,0-0.7-0.4-0.7-0.8l0,0c0,0,0,0,2.5-12.6l0,0c0.1-0.3,0.4-0.5,0.8-0.5l0,0c0,0,0,0,11.2,0l0,0c0.3,0,0.5,0.1,0.7,0.4
		C158.8,47.6,158.8,47.8,158.5,48.1L158.5,48.1z M142.5,46.9c-8.5,0-8.5,0-8.5,0l0,0c-0.3,0-0.4,0.1-0.5,0.3
		c-0.1,0.1-0.3,0.4-0.1,0.7c1,4,2.5,7.8,4.5,11.3c0.1,0.3,0.3,0.4,0.5,0.4c0.4,0.1,0.8,0.3,1.5,0.4c0.4,0.1,0.8-0.1,1-0.5l0,0
		c2.3-11.6,2.3-11.6,2.3-11.6l0,0c0-0.3,0-0.5-0.1-0.7C143,47,142.7,46.9,142.5,46.9L142.5,46.9L142.5,46.9L142.5,46.9z M150.6,3.6
		c-2,10.2-2,10.2-2,10.2c-8.1,0-8.1,0-8.1,0l0,0C143.2,9.7,146.6,6.3,150.6,3.6L150.6,3.6L150.6,3.6L150.6,3.6z M156.2,4.1
		L156.2,4.1c0,0,0,0-1.9,9.7c0,0,0,0,6.8,0l0,0c-1.2-3.4-2.9-6.7-4.8-9.7l0,0C156.4,4.1,156.4,4.1,156.2,4.1L156.2,4.1z M171,13.8
		c-3.8,0-3.8,0-3.8,0l0,0c-0.7-1.9-1.5-3.8-2.5-5.9C167,9.6,169.2,11.6,171,13.8L171,13.8L171,13.8L171,13.8z M177,28.8
		c-7.2,0-7.2,0-7.2,0l0,0c0.1-3.4-0.4-6.8-1.2-10.4l0,0c5.5,0,5.5,0,5.5,0l0,0C175.8,21.7,176.7,25.1,177,28.8L177,28.8L177,28.8
		L177,28.8z M153.3,18.4c9.2,0,9.2,0,9.2,0l0,0c0.8,3.6,1.1,7.1,1,10.4l0,0c-12.2,0-12.2,0-12.2,0C153.3,18.4,153.3,18.4,153.3,18.4
		L153.3,18.4L153.3,18.4z M137.9,18.4c9.7,0,9.7,0,9.7,0c-2,10.4-2,10.4-2,10.4c-11.2,0-11.2,0-11.2,0l0,0
		C135.2,25.3,136.3,21.7,137.9,18.4L137.9,18.4L137.9,18.4L137.9,18.4z M174.1,43.7L174.1,43.7L174.1,43.7c1.6-3.1,2.6-6.7,2.9-10.2
		l0,0c0,0,0,0-7.5,0l0,0c-0.5,3.6-1.5,7-3,10.2l0,0C166.5,43.7,166.5,43.7,174.1,43.7L174.1,43.7z M150.3,33.5c12.6,0,12.6,0,12.6,0
		l0,0c-0.7,3.6-1.9,7-3.7,10.2l0,0c-10.8,0-10.8,0-10.8,0C150.3,33.5,150.3,33.5,150.3,33.5L150.3,33.5L150.3,33.5z M142.4,43.7
		c-8.3,0-8.3,0-8.3,0l0,0c-0.5-3.3-0.5-6.8-0.3-10.2l0,0c10.8,0,10.8,0,10.8,0C142.4,43.7,142.4,43.7,142.4,43.7L142.4,43.7
		L142.4,43.7z M153.6,59c4.1-3.1,7.5-6.7,10.2-10.7l0,0c7.2,0,7.2,0,7.2,0l0,0C166.7,54,160.5,57.7,153.6,59L153.6,59L153.6,59
		L153.6,59z M145.4,59.4c-0.1,0-0.1,0-0.1,0c2.2-11.1,2.2-11.1,2.2-11.1c9,0,9,0,9,0l0,0C153.5,52.5,149.8,56.2,145.4,59.4
		L145.4,59.4L145.4,59.4L145.4,59.4z M139.5,58.4c0-0.1-0.1-0.1-0.4-0.1c-1.8-3.1-3.1-6.4-4-9.8l0,0c6.3,0,6.3,0,6.3,0
		C139.5,58.4,139.5,58.4,139.5,58.4L139.5,58.4L139.5,58.4z M130.4,46.2L130.4,46.2L130.4,46.2c1,2.9,2.2,5.6,3.8,8.6
		c0.1,0.3,0.1,0.7-0.1,1c-0.3,0.3-0.7,0.3-1,0.1c-4-2.2-7.5-5.3-10.1-9c-0.3-0.3-0.3-0.5-0.1-0.8c0.1-0.3,0.4-0.4,0.7-0.4l0,0
		c0,0,0,0,6.1,0l0,0C130,45.6,130.2,45.8,130.4,46.2L130.4,46.2z M129.3,43.9c0.1-0.3,0.3-0.5,0.1-0.7c-1.1-4-1.5-7.9-1.5-11.8
		c0.1-0.4-0.3-0.8-0.7-0.8l0,0c-8.9,0-8.9,0-8.9,0l0,0c-0.5,0-0.8,0.4-0.8,0.8c0.3,4.4,1.4,8.5,3.4,12.3c0.1,0.3,0.4,0.4,0.7,0.4
		l0,0c7.1,0,7.1,0,7.1,0l0,0C128.9,44.1,129.2,44,129.3,43.9L129.3,43.9L129.3,43.9L129.3,43.9z M118.4,29.1c9,0,9,0,9,0l0,0
		c0.4,0,0.8-0.3,0.8-0.7c0.4-4,1.6-7.9,3.6-11.6c0.1-0.3,0.1-0.5,0-0.7c-0.1-0.3-0.4-0.4-0.7-0.4l0,0c-9.4,0-9.4,0-9.4,0l0,0
		c-0.3,0-0.5,0.1-0.7,0.4c-2,3.8-3.1,7.9-3.4,12.2C117.5,28.7,117.8,29.1,118.4,29.1L118.4,29.1L118.4,29.1L118.4,29.1z M123.4,14.2
		L123.4,14.2L123.4,14.2c-0.3,0-0.5-0.1-0.7-0.4c-0.1-0.3,0-0.7,0.1-0.8c5.3-7.5,13.5-12.3,22.8-13c0.3,0,0.7,0.3,0.7,0.5
		c0.1,0.4,0,0.8-0.3,1c-5.3,3.4-9.6,7.7-12.7,12.3c-0.1,0.3-0.4,0.4-0.5,0.4l0,0C132.8,14.2,132.8,14.2,123.4,14.2L123.4,14.2z
		 M125.2,47.1L125.2,47.1L125.2,47.1c1.8,2.3,4,4.2,6.3,5.9c-1-1.9-1.6-4-2.5-5.9l0,0C129,47.1,129,47.1,125.2,47.1L125.2,47.1z
		 M119.2,32.1c7.2,0,7.2,0,7.2,0l0,0c0,3.4,0.4,7,1.2,10.4l0,0c-5.5,0-5.5,0-5.5,0l0,0C120.4,39.4,119.5,35.8,119.2,32.1L119.2,32.1
		L119.2,32.1L119.2,32.1z M122,17.2c7.8,0,7.8,0,7.8,0l0,0c-1.6,3.3-2.6,6.8-3.1,10.4l0,0c-7.5,0-7.5,0-7.5,0l0,0
		C119.5,23.9,120.4,20.5,122,17.2L122,17.2L122,17.2L122,17.2z M142.7,2c-4.2,3.1-7.7,6.7-10.2,10.5l0,0c-7.4,0-7.4,0-7.4,0l0,0
		C129.4,7.1,135.7,3.3,142.7,2L142.7,2L142.7,2z"/>
	<path class="st1" d="M115.6,23c13.8,0,13.8,0,13.8,0c8.1,47.8,8.1,47.8,8.1,47.8c0.4,2.5,1,3.8,1.5,4.4c0.5,0.5,1.9,0.7,4.1,0.8
		c-2.1,8.5-2.1,8.5-2.1,8.5c-28,0-28,0-28,0c1.9-8.5,1.9-8.5,1.9-8.5c2.5,0,2.5,0,2.5,0c3.4,0,5.1-1.1,5.1-3.1
		c0-0.5-0.1-1.9-0.4-3.8c-4.2-31.8-4.2-31.8-4.2-31.8c-19.5,34-19.5,34-19.5,34c-0.8,1.4-1.2,2.5-1.2,3c0,0.7,0.1,1.1,0.7,1.4
		c0.5,0.3,1.6,0.4,3.4,0.4c2.3,0,2.3,0,2.3,0c-2,8.5-2,8.5-2,8.5c-25.3,0-25.3,0-25.3,0c2-8.5,2-8.5,2-8.5c2.1,0,3.4-0.3,4.4-1
		c1-0.5,2.2-2,3.8-4.6L115.6,23z"/>
	<path class="st2" d="M76,23c13.8,0,13.8,0,13.8,0c8.1,47.8,8.1,47.8,8.1,47.8c0.3,2,0.5,3.3,0.8,3.7c0.4,0.4,0.8,0.8,1.4,1.1
		c0.5,0.3,1.8,0.4,3.6,0.4c-2,8.5-2,8.5-2,8.5c-29.5,0-29.5,0-29.5,0C74,76,74,76,74,76c2.9,0,2.9,0,2.9,0c1.9,0,3.3-0.3,4-0.5
		c1.2-0.7,1.8-1.5,1.8-2.7c0-0.5-0.1-1.8-0.4-3.7c-0.5-4.9-0.5-4.9-0.5-4.9c-19,0-19,0-19,0c-4.1,7.1-4.1,7.1-4.1,7.1
		c-0.8,1.4-1.2,2.5-1.2,3c0,0.7,0.3,1.1,1,1.4c0.4,0.3,1.6,0.4,3.6,0.4c2.6,0,2.6,0,2.6,0c-1.9,8.5-1.9,8.5-1.9,8.5
		c-26.5,0-26.5,0-26.5,0c2.2-8.5,2.2-8.5,2.2-8.5c1.5,0,2.7-0.1,3.6-0.4c0.8-0.3,1.5-0.7,2.1-1.2c0.5-0.5,1.5-1.9,2.9-4L76,23L76,23
		z M80.5,56.1c-2.3-18.6-2.3-18.6-2.3-18.6C67.6,56.1,67.6,56.1,67.6,56.1H80.5z"/>
	<path class="st0" d="M19.8,23c27.1,0,27.1,0,27.1,0c6,0,10.5,0.5,13.5,1.8c3,1.4,5.3,3.1,7,5.5c1.8,2.5,2.6,5.2,2.6,8.5
		c0,2.3-0.4,4.6-1.2,6.8c-0.8,2.2-2,4.1-3.7,6.1c-1.8,1.9-3.6,3.4-5.7,4.6c-2.1,1.2-4.4,2.2-7,2.7c-3.8,0.8-7.5,1.2-11.2,1.2
		c-7,0-7,0-7,0c-2.5,11.2-2.5,11.2-2.5,11.2c-0.3,1.1-0.4,1.9-0.4,2.5c0,0.7,0.3,1.2,0.8,1.5c0.4,0.3,1.5,0.5,3,0.5
		c3.4,0,3.4,0,3.4,0c-2,8.5-2,8.5-2,8.5c-30.2,0-30.2,0-30.2,0C8.2,76,8.2,76,8.2,76c2.3,0,2.3,0,2.3,0c2.2,0,3.7-0.4,4.5-1
		c0.8-0.7,1.4-1.9,1.8-3.8c7.9-35.1,7.9-35.1,7.9-35.1c0.3-1,0.3-1.8,0.3-2.3s0-1-0.3-1.4c-0.3-0.4-0.7-0.7-1.2-0.8
		c-0.3-0.1-1.2-0.1-2.6-0.1c-3,0-3,0-3,0L19.8,23L19.8,23z M36.3,50.5c3.3,0,3.3,0,3.3,0c3.3,0,5.6-0.3,7.1-0.8
		c2.1-0.5,3.7-1.9,5.1-3.7c1.5-1.8,2.2-3.8,2.2-5.9c0-1.5-0.4-2.9-1.2-4.1c-0.8-1.1-1.9-1.9-3.3-2.5c-1.4-0.5-3.6-0.7-6.7-0.7
		c-2.5,0-2.5,0-2.5,0L36.3,50.5z"/>
</g>
<path class="st3" d="M3.4,93.6h6.5c1.4,0,2.5,0.2,3.2,0.5c0.7,0.3,1.3,0.8,1.7,1.3c0.4,0.6,0.6,1.3,0.6,2.1c0,0.6-0.1,1.1-0.3,1.7
	c-0.2,0.5-0.5,1-0.9,1.5c-0.4,0.5-0.8,0.9-1.3,1.2c-0.5,0.3-1.1,0.5-1.7,0.7c-0.9,0.2-1.8,0.3-2.7,0.3H6.9l-0.6,2.6
	c-0.1,0.3-0.1,0.5-0.1,0.7c0,0.2,0.1,0.3,0.2,0.4c0.1,0.1,0.4,0.1,0.7,0.1h0.8l-0.5,2.1H0l0.5-2.1H1c0.5,0,0.9-0.1,1.1-0.2
	c0.2-0.2,0.4-0.5,0.5-0.9l1.9-8.6c0.1-0.2,0.1-0.4,0.1-0.6c0-0.1,0-0.3-0.1-0.3c-0.1-0.1-0.1-0.2-0.3-0.2c-0.1,0-0.3-0.1-0.6-0.1
	H2.9L3.4,93.6L3.4,93.6z M7.4,100.4h0.8c0.8,0,1.3-0.1,1.7-0.2c0.5-0.2,0.9-0.5,1.2-0.9c0.3-0.4,0.5-0.9,0.5-1.4
	c0-0.4-0.1-0.7-0.3-1c-0.2-0.3-0.4-0.5-0.7-0.6C10.2,96.1,9.7,96,9,96H8.4L7.4,100.4L7.4,100.4z M17.2,100.7l-1,4.2
	c-0.2,0.7-0.2,1.2-0.2,1.5c0,0.4,0.1,0.9,0.4,1.3c0.3,0.4,0.6,0.7,1,1c0.4,0.2,0.9,0.3,1.6,0.3c0.5,0,0.9-0.1,1.4-0.2
	c0.4-0.1,0.8-0.3,1.2-0.5c0.4-0.2,0.7-0.6,1.1-1c-0.1,0.8-0.3,1.4-0.6,1.9c-0.2,0.5-0.5,0.9-0.9,1.3c-0.3,0.3-0.7,0.6-1.1,0.8
	c-0.4,0.2-0.8,0.3-1.2,0.3c-0.3,0-0.7-0.1-0.9-0.2c-0.3-0.1-0.5-0.4-0.8-0.7c-0.3-0.4-0.6-0.6-0.7-0.7c-0.3-0.1-0.5-0.2-0.8-0.2
	c-0.4,0-0.8,0.2-1.1,0.5c-0.3,0.3-0.5,0.7-0.5,1.1c0,0.6,0.4,1.2,1.1,1.7c0.7,0.5,1.8,0.7,3.2,0.7c2.1,0,3.8-0.5,5.1-1.5
	c1.2-0.9,2-2.4,2.5-4.3l2.2-9.9h-3.4l-0.6,2.7c-0.3,1.3-0.7,2.4-1.1,3.3c-0.5,0.9-1,1.5-1.5,2c-0.4,0.3-0.7,0.4-1,0.4
	c-0.3,0-0.5-0.1-0.6-0.2c-0.1-0.1-0.2-0.3-0.2-0.5c0-0.2,0.1-0.5,0.2-1l1.6-7.1h-1.1c-1.4,0.5-2.8,0.8-4.2,0.9l-0.5,2.1H17.2
	L17.2,100.7z M38.3,105.1l1.2,1.6c-2,1.5-3.9,2.2-5.9,2.2c-1.5,0-2.7-0.4-3.6-1.3c-0.9-0.9-1.3-2-1.3-3.3c0-1.1,0.3-2.2,1-3.3
	c0.6-1,1.5-1.9,2.7-2.5c1.1-0.6,2.4-1,3.6-1c1.3,0,2.3,0.3,3,0.9c0.8,0.6,1.1,1.3,1.1,2.1c0,0.6-0.2,1-0.5,1.3
	c-0.3,0.3-0.7,0.5-1.3,0.5c-0.3,0-0.6-0.1-0.9-0.2c-0.3-0.1-0.5-0.3-0.6-0.6c-0.1-0.1-0.2-0.3-0.3-0.7c-0.1-0.3-0.2-0.6-0.3-0.7
	c-0.1-0.1-0.2-0.2-0.4-0.3c-0.2-0.1-0.3-0.1-0.5-0.1c-0.4,0-0.8,0.2-1.2,0.5c-0.5,0.4-1,1-1.3,1.8c-0.4,0.8-0.6,1.6-0.6,2.3
	c0,0.6,0.2,1.1,0.6,1.5c0.4,0.4,0.9,0.6,1.5,0.6c0.5,0,1.1-0.1,1.8-0.4C36.9,106,37.6,105.6,38.3,105.1L38.3,105.1z M48.9,93.6
	l-7.2,11.6c-0.3,0.5-0.5,0.8-0.7,1c-0.1,0.1-0.3,0.2-0.5,0.3c-0.2,0.1-0.5,0.1-0.8,0.1l-0.5,2.1h6.2l0.5-2.1h-0.6
	c-0.4,0-0.7,0-0.8-0.1c-0.2-0.1-0.2-0.2-0.2-0.3c0-0.1,0.1-0.4,0.3-0.7l1-1.7h4.7l0.2,1.2c0.1,0.5,0.1,0.8,0.1,0.9
	c0,0.3-0.1,0.5-0.4,0.7c-0.1,0.1-0.4,0.1-0.9,0.1h-0.6l-0.5,2.1h6.9l0.5-2.1c-0.4,0-0.7,0-0.9-0.1c-0.1-0.1-0.2-0.2-0.3-0.3
	c-0.1-0.1-0.1-0.4-0.2-0.9l-2-11.8H48.9L48.9,93.6z M50.1,101.7h-3.2l2.6-4.6L50.1,101.7L50.1,101.7z M66.8,102.7
	c1.3,0.2,1.9,0.9,1.9,1.9c0,1.2-0.6,2.2-1.8,3.1c-1.2,0.9-2.7,1.3-4.5,1.3c-1.8,0-3.1-0.4-4.1-1.2c-0.9-0.8-1.4-1.9-1.4-3.3
	c0-2,0.8-3.6,2.4-4.9c1.6-1.3,3.4-1.9,5.4-1.9c1.1,0,2,0.2,2.7,0.7c0.7,0.5,1,1.1,1,1.9C68.5,101.5,67.9,102.3,66.8,102.7
	L66.8,102.7z M61.2,102.4c2.8-0.3,4.2-0.9,4.2-1.9c0-0.2-0.1-0.4-0.3-0.6c-0.2-0.2-0.4-0.2-0.7-0.2c-0.6,0-1.2,0.2-1.8,0.7
	C62,100.9,61.5,101.6,61.2,102.4L61.2,102.4z M60.8,104.3v0.4c0,1.3,0.7,1.9,2,1.9c0.6,0,1.2-0.2,1.8-0.5c0.5-0.3,0.8-0.7,0.8-1.2
	c0-0.7-0.5-1-1.4-1C63.2,103.9,62.1,104,60.8,104.3L60.8,104.3z M76.2,97.7l-0.5,2.2c0.5-0.6,0.9-1.1,1.3-1.3
	c0.4-0.3,0.8-0.5,1.2-0.7c0.4-0.1,0.8-0.2,1.2-0.2c0.5,0,0.9,0.1,1.3,0.3c0.4,0.2,0.7,0.4,0.9,0.7c0.2,0.3,0.4,0.6,0.5,1.1
	c0.3-0.4,0.7-0.8,1.1-1.1c0.4-0.3,0.9-0.5,1.3-0.7c0.4-0.1,0.9-0.2,1.3-0.2c0.8,0,1.5,0.2,2,0.7c0.5,0.5,0.8,1.1,0.8,1.8
	c0,0.2,0,0.5,0,0.7c0,0.1-0.1,0.3-0.2,0.7l-0.8,3.6c-0.1,0.4-0.1,0.6-0.1,0.8c0,0.2,0,0.3,0.1,0.4c0.1,0.1,0.2,0.1,0.4,0.1
	c0.1,0,0.3,0,0.5-0.1c0.3-0.2,0.7-0.4,0.9-0.6l1.2,1.4c-1.3,1.2-2.6,1.8-3.9,1.8c-0.8,0-1.4-0.2-1.9-0.7c-0.5-0.5-0.8-1-0.8-1.6
	c0-0.4,0.1-0.8,0.2-1.2l0.8-3.6c0.1-0.4,0.1-0.7,0.1-0.8c0-0.2-0.1-0.4-0.2-0.5c-0.1-0.1-0.3-0.2-0.5-0.2c-0.3,0-0.6,0.1-0.9,0.4
	c-0.5,0.4-1,1.1-1.4,2c-0.4,0.9-0.8,2.3-1.3,4.1l-0.5,2h-3.4l1.5-6.7c0.1-0.6,0.2-0.9,0.2-1c0-0.2-0.1-0.4-0.2-0.5
	c-0.1-0.1-0.3-0.2-0.5-0.2c-0.1,0-0.3,0-0.4,0.1c-0.2,0.1-0.4,0.2-0.6,0.4c-0.2,0.2-0.4,0.4-0.7,0.8c-0.3,0.4-0.6,0.9-0.8,1.5
	c-0.3,0.6-0.5,1.1-0.6,1.6l-0.7,2.5l-0.4,1.7h-3.4l1.8-8.1h-1.7l0.5-2.1c1.3-0.1,2.7-0.4,4.1-0.9H76.2L76.2,97.7z M98.3,97.7
	c1.5,0,2.7,0.4,3.7,1.2c1,0.8,1.5,2,1.5,3.4c0,1.2-0.3,2.3-0.9,3.4c-0.6,1.1-1.4,1.9-2.4,2.5c-1,0.6-2.2,0.9-3.4,0.9
	c-1.6,0-2.9-0.4-3.9-1.3c-1-0.9-1.4-2-1.4-3.4c0-1.2,0.3-2.3,0.9-3.3c0.6-1,1.4-1.8,2.5-2.4C95.8,97.9,97,97.7,98.3,97.7L98.3,97.7z
	 M98.1,99.9c-0.5,0-0.9,0.2-1.4,0.5c-0.4,0.3-0.8,0.9-1.2,1.7c-0.3,0.8-0.5,1.7-0.5,2.5c0,0.7,0.1,1.2,0.4,1.6
	c0.3,0.3,0.7,0.5,1.2,0.5c0.5,0,1-0.2,1.4-0.5c0.4-0.3,0.8-0.9,1.2-1.7c0.3-0.8,0.5-1.7,0.5-2.6c0-0.7-0.2-1.2-0.5-1.6
	C99,100,98.6,99.9,98.1,99.9L98.1,99.9z M112.6,93.6l-7.2,11.6c-0.4,0.6-0.7,1-0.9,1.2c-0.2,0.1-0.6,0.2-1.1,0.2l-0.5,2.1h6.2
	l0.5-2.1H109c-0.4,0-0.7,0-0.8-0.1c-0.1-0.1-0.2-0.2-0.2-0.3c0-0.2,0.1-0.4,0.3-0.8l4.8-8.3l1,7.8c0.1,0.5,0.1,0.8,0.1,0.9
	c0,0.5-0.4,0.8-1.2,0.8h-0.6l-0.5,2.1h6.9l0.5-2.1c-0.5,0-0.9-0.1-1-0.2c-0.1-0.1-0.3-0.5-0.4-1.1l-2-11.8H112.6L112.6,93.6z
	 M133.6,97.9l-1.7,7.5c-0.1,0.3-0.1,0.5-0.1,0.6c0,0.1,0,0.3,0.1,0.4c0.1,0.1,0.2,0.1,0.3,0.1c0.2,0,0.3-0.1,0.5-0.2
	c0.3-0.2,0.6-0.4,0.9-0.6l1.2,1.4c-1.2,1.2-2.5,1.8-3.9,1.8c-0.8,0-1.4-0.2-1.9-0.6c-0.4-0.3-0.7-0.9-0.9-1.5
	c-0.4,0.6-1,1.1-1.7,1.5c-0.7,0.4-1.5,0.6-2.3,0.6c-0.9,0-1.6-0.2-2.1-0.7c-0.5-0.5-0.8-1.1-0.8-1.9c0-0.4,0.1-0.8,0.2-1.2
	c0-0.1,0.1-0.2,0.1-0.3l0.9-4.1H121l0.5-2.1c0.7,0,1.4-0.1,2.2-0.3c0.8-0.2,1.5-0.4,2.1-0.7h1l-1.6,7.3c-0.1,0.4-0.1,0.6-0.1,0.8
	c0,0.2,0.1,0.4,0.2,0.5c0.1,0.1,0.3,0.2,0.5,0.2c0.3,0,0.6-0.1,0.9-0.3c0.5-0.3,0.9-0.8,1.3-1.5c0.4-0.6,0.8-1.4,1.1-2.4
	c0.3-0.9,0.5-1.6,0.6-1.9c0-0.1,0-0.2,0.1-0.4l0.5-2.1H133.6L133.6,97.9z M139.6,93.6l0.5-2.1c2.7,0.3,4.8,1.1,6.2,2.2
	c1.4,1.1,2.2,2.9,2.2,5.3c0,2.9-0.6,5.2-1.9,7.1c-1.3,1.9-3.1,2.8-5.5,2.8c-1.4,0-2.7-0.4-3.7-1.2c-1-0.8-1.6-2-1.6-3.6
	c0-1.8,0.7-3.4,2-4.7c1.3-1.3,2.9-1.9,4.5-1.9c2.2,0,3.4,0.9,3.7,2.7c0-0.4,0-0.7,0-0.9c0-1.8-0.5-3.2-1.4-4.1
	C143.6,94.5,142,93.9,139.6,93.6L139.6,93.6z M144.2,102c0-0.7-0.2-1.3-0.5-1.6c-0.3-0.3-0.7-0.5-1.2-0.5c-0.9,0-1.6,0.5-2.2,1.5
	c-0.6,1-0.9,2.1-0.9,3.3c0,0.7,0.2,1.3,0.5,1.6c0.3,0.3,0.7,0.5,1.1,0.5c0.9,0,1.6-0.5,2.2-1.5C143.9,104.3,144.2,103.2,144.2,102
	L144.2,102z M158.9,104.8l1.4,1.6c-1.1,0.9-2.1,1.6-3,2c-0.9,0.4-1.9,0.6-2.9,0.6c-1.4,0-2.5-0.3-3.3-0.9c-1.2-0.9-1.8-2.2-1.8-3.7
	c0-1.2,0.3-2.3,1-3.3c0.7-1,1.6-1.8,2.8-2.5c1.2-0.6,2.6-1,4-1c1.2,0,2.1,0.3,2.8,0.8c0.7,0.5,1,1.2,1,1.9c0,0.5-0.1,1-0.3,1.4
	c-0.3,0.5-0.7,1-1.3,1.3c-0.6,0.3-1.4,0.6-2.5,0.9c-1.1,0.2-2.3,0.4-3.6,0.4v0.3c0,0.6,0.2,1.1,0.6,1.5c0.4,0.4,0.9,0.6,1.5,0.6
	c0.5,0,1.1-0.1,1.7-0.4C157.6,105.8,158.3,105.3,158.9,104.8L158.9,104.8z M153.5,102.3c1.1-0.1,2-0.2,2.6-0.4
	c0.6-0.2,1.1-0.4,1.3-0.7c0.2-0.2,0.3-0.4,0.3-0.7c0-0.2-0.1-0.4-0.3-0.6c-0.2-0.2-0.4-0.2-0.7-0.2c-0.4,0-0.8,0.1-1.2,0.3
	c-0.4,0.2-0.8,0.5-1.1,0.9C154,101.3,153.7,101.7,153.5,102.3L153.5,102.3z M163.9,100.7l-2.1,9.5c-0.1,0.5-0.2,0.8-0.3,0.9
	c-0.1,0.1-0.2,0.2-0.4,0.3c-0.2,0.1-0.5,0.1-1,0.1h-0.4l-0.5,2.1h7l0.5-2.1h-0.5c-0.5,0-0.8,0-0.9-0.1c-0.2-0.1-0.3-0.2-0.3-0.4
	c0-0.1,0-0.3,0.1-0.6l0.5-2.3c0.5,0.3,1,0.6,1.4,0.7c0.4,0.1,0.9,0.2,1.5,0.2c1.1,0,2.2-0.3,3.2-0.9c1-0.6,1.8-1.5,2.4-2.6
	c0.6-1.1,0.9-2.3,0.9-3.5c0-0.9-0.2-1.6-0.5-2.3c-0.3-0.7-0.8-1.2-1.3-1.5c-0.6-0.3-1.2-0.5-1.9-0.5c-0.5,0-1,0.1-1.5,0.2
	c-0.5,0.2-0.9,0.4-1.3,0.6c-0.4,0.3-0.8,0.7-1.2,1.2l0.5-2.1h-1c-1.1,0.5-2.5,0.8-4.1,1l-0.5,2.1H163.9L163.9,100.7z M166.2,105.9
	l0.2-0.7c0.2-0.8,0.4-1.5,0.8-2.2c0.5-1,1-1.7,1.5-2.1c0.5-0.4,1-0.6,1.4-0.6c0.4,0,0.7,0.1,0.9,0.4c0.2,0.3,0.4,0.7,0.4,1.3
	c0,0.9-0.2,1.7-0.6,2.5c-0.4,0.8-0.8,1.4-1.3,1.8c-0.5,0.4-1,0.5-1.5,0.5C167.3,106.8,166.7,106.5,166.2,105.9z"/>
</svg>
