<svg xmlns="http://www.w3.org/2000/svg" viewBox="0 0 484.05 155.7"><defs><style>.cls-1{fill:#fff;}.cls-2{fill:#00acec;}.cls-2,.cls-3{fill-rule:evenodd;}.cls-3{fill:#c85412;}</style></defs><title>Ресурс 1</title><g id="Слой_2" data-name="Слой 2"><g id="Layer_1" data-name="Layer 1"><polygon class="cls-1" points="303.89 33.42 308.52 0 269.6 0 264.79 33.42 5.49 33.42 0 71.78 13.61 71.78 5.18 129.11 173.16 129.11 420.46 129.03 416.3 155.7 455.96 155.7 456.55 152.03 465.78 94.58 474.95 94.58 484.05 33.42 303.89 33.42"/><path class="cls-2" d="M312.69,45H297.36l-9.6,25.79-.37,1-1.05,3.47.58-3.83.15-.84,8.19-59H279.61l-15.24,106h16.17l4.17-30,.12-.84.48-3.65.06,5,.06,1.65,1.42,27.86h16l-4.44-38.82ZM341,45l-4.77,30-.77,4.57.07-3.61,0-.93L334.46,45h-17l-11,72.58h14l5.12-33.34.65-4.65-.06,3.68,0,.87,1.56,33.44h15.34l11-72.58Zm81.81.05-9.63,60.12a2.38,2.38,0,0,1-2.89,2,2.34,2.34,0,0,1-1.72-2.7L418.08,45,402,45q-3.45,25.15-9.51,59.34c-.56,4.36-.72,14.19,14.07,14.83,14.09.6,20.83-3,22.44-13.31L438.64,45ZM469.2,56.46,470.75,45H445.08l-15.3,99.16h16.34L455.94,83H465l1.86-12.12h-9.34l2.08-14.44ZM347.58,117.4H363l3.55-14.2H373l-1.59,14.2h15.18l4.21-72.58h-21Zm30-58.87,1.25-5.36L378,58.68l-.18,1.43-3.5,31H369.5l7.77-31.21Z"/><path class="cls-3" d="M62.32,45.81l.14-1H15.51L13.32,60.22H27l-8.43,57.33H38.17L46.6,60.22h6.59A26.46,26.46,0,0,1,62.32,45.81Zm108.9-1c-5.47,37.58-8.17,52.89-10.46,56.94-1.2,2-2.2,2.66-3.72,2.66a6.09,6.09,0,0,1-3.69-1l-1.9,12.79c1.3,1.13,4.88,2.27,8.29,2.27,6.2,0,11.72-1.64,15.73-7.34,4.61-6.7,6-16.19,11.78-50.87H195l-8.43,57.33h19.62l10.62-72.76Zm73.62-1.52c-19.61,0-26,12.27-27.1,20.75l-5.05,34.29c-1.27,8.48,1.37,20.76,21,20.76s25.83-12.28,27.09-20.76L265.83,64C267,55.54,264.45,43.27,244.84,43.27Zm1.59,19.36L241,99.71c-.44,2.52-.84,5.94-5.27,5.94s-4-3.42-3.59-5.94l5.48-37.08c.3-2.53.83-6,5.26-6S246.73,60.1,246.43,62.63ZM79.74,99.36c-.43,2.54-.83,6-5.26,6s-4-3.41-3.59-6l2.32-15.69h28.46l3-20c1.14-8.48-1.38-20.76-21-20.76s-26,12.28-27.1,20.76L51.48,98c-1.26,8.48,1.38,20.75,21,20.75S98.3,106.45,99.57,98l1.16-7.72H81.12ZM76.37,62.28c.3-2.53.83-5.94,5.26-5.94s3.9,3.41,3.59,5.94l-1.28,8H75.08Zm69.39-19c-7.47,0-11.92,3.41-16.42,9.61h-.25l1.15-8.09H111.38l-10.62,72.76h19.62l7.25-49.73c.33-1.77,1.06-7,5.49-7s3.8,4.31,3.37,7l-7.25,49.73h19.61L157.49,59C158.74,50.1,155.12,43.27,145.76,43.27Z"/></g></g></svg>